<svg width="60" height="60" fill="none" xmlns="http://www.w3.org/2000/svg"><g clip-path="url(#clip0)"><path d="M39.887 19.234a19.738 19.738 0 0120.11 19.41 19.892 19.892 0 01-.461 4.676c-.56 2.543-.894 5.13-.894 7.734v5.033c0 .77-.625 1.396-1.397 1.396h-5.032c-2.604 0-5.192.333-7.734.894a19.892 19.892 0 01-4.676.461 19.738 19.738 0 01-19.41-20.109c.163-10.693 8.8-19.331 19.494-19.495z" fill="url(#paint0_linear)"/><path d="M39.887 19.234a19.738 19.738 0 0120.11 19.41 19.892 19.892 0 01-.461 4.676c-.56 2.543-.894 5.13-.894 7.734v5.033c0 .77-.625 1.396-1.397 1.396h-5.032c-2.604 0-5.192.333-7.734.894a19.892 19.892 0 01-4.676.461 19.738 19.738 0 01-19.41-20.109c.163-10.693 8.8-19.331 19.494-19.495z" fill="#F8931F"/><path d="M24.504 1.161a24.046 24.046 0 00-24.5 23.647c-.037 1.96.159 3.867.562 5.696.683 3.098 1.09 6.25 1.09 9.422v6.131a1.7 1.7 0 001.7 1.701h6.132c3.172 0 6.324.407 9.422 1.09 1.83.403 3.736.6 5.696.561a24.046 24.046 0 0023.647-24.498C48.054 11.883 37.53 1.36 24.503 1.16z" fill="#FB6A19"/><path d="M17.5 29a2.5 2.5 0 100-5 2.5 2.5 0 000 5zm7 0a2.5 2.5 0 100-5 2.5 2.5 0 000 5zm7 0a2.5 2.5 0 100-5 2.5 2.5 0 000 5z" fill="#fff"/></g><defs><linearGradient id="paint0_linear" x1="36.198" y1="35.04" x2="65.275" y2="64.117" gradientUnits="userSpaceOnUse"><stop stop-color="#A7F3CE"/><stop offset="1" stop-color="#61DB99"/></linearGradient><clipPath id="clip0"><path fill="#fff" d="M0 0h60v60H0z"/></clipPath></defs></svg>