<svg width="72" height="72" fill="none" xmlns="http://www.w3.org/2000/svg"><g clip-path="url(#clip0)"><path d="M72 30.888C72 13.83 58.108 0 40.97 0 23.835 0 9.942 13.83 9.942 30.888c0 17.06 13.893 30.888 31.03 30.888 3.596 0 7.05-.61 10.262-1.731l9.466 4.572V54.73C67.601 49.065 72 40.488 72 30.888z" fill="#FF9E5E"/><path d="M40.97 0c-.977 0-1.943.047-2.897.135C53.851 1.59 66.205 14.802 66.205 30.888c0 15.82-12.686 29.26-28.176 30.75.969.09 1.95.138 2.942.138 3.596 0 7.05-.611 10.262-1.731l9.466 4.571V54.73c6.901-5.665 11.3-14.242 11.3-23.842C72 13.83 58.108 0 40.972 0z" fill="#FA8D46"/><path d="M26.61 35.881a4.376 4.376 0 100-8.752 4.376 4.376 0 000 8.752zm14.36 0a4.376 4.376 0 100-8.752 4.376 4.376 0 000 8.752zm14.36 0a4.376 4.376 0 100-8.752 4.376 4.376 0 000 8.752z" fill="#FFF7E8"/><path d="M0 55.372c0-8.41 6.849-15.227 15.297-15.227s15.297 6.817 15.297 15.227S23.745 70.6 15.297 70.6a15.33 15.33 0 01-5.06-.854L5.572 72v-4.874C2.17 64.333 0 60.106 0 55.372z" fill="#FFD88F"/><path d="M15.298 40.145c-.991 0-1.96.094-2.898.273 7.063 1.349 12.4 7.53 12.4 14.954 0 7.422-5.333 13.602-12.392 14.953a15.45 15.45 0 002.89.275c8.448 0 15.297-6.818 15.297-15.228s-6.849-15.227-15.297-15.227z" fill="#FFC963"/></g><defs><clipPath id="clip0"><path fill="#fff" d="M0 0h72v72H0z"/></clipPath></defs></svg>