<svg width="26" height="26" fill="none" xmlns="http://www.w3.org/2000/svg"><g clip-path="url(#clip0)"><path d="M26 11.154C26 4.994 20.983 0 14.795 0 8.606 0 3.59 4.994 3.59 11.154s5.016 11.154 11.205 11.154c1.299 0 2.545-.22 3.705-.625l3.419 1.65v-3.57a11.112 11.112 0 004.08-8.609z" fill="#F15B29"/><path d="M14.795 0a11.4 11.4 0 00-1.047.049c5.698.525 10.159 5.296 10.159 11.105 0 5.713-4.581 10.566-10.175 11.104a11.232 11.232 0 004.768-.575l3.419 1.65v-3.57a11.112 11.112 0 004.08-8.609C26 4.994 20.983 0 14.796 0z" fill="#E75120"/><path d="M9.61 12.957a1.58 1.58 0 100-3.16 1.58 1.58 0 000 3.16zm5.185 0a1.58 1.58 0 100-3.16 1.58 1.58 0 000 3.16zm5.185 0a1.58 1.58 0 100-3.16 1.58 1.58 0 000 3.16z" fill="#FFF7E8"/></g><defs><clipPath id="clip0"><path fill="#fff" d="M0 0h26v26H0z"/></clipPath></defs></svg>