<svg width="53" height="53" fill="none" xmlns="http://www.w3.org/2000/svg"><path d="M26.5 2.794C11.864 2.794 0 12.847 0 25.249c0 5.986 2.765 11.425 7.272 15.45.634.567.886 1.462.886 2.311v5.783c0 .468.215.904.574 1.163.011.004.575.453 1.283.137 6.8-3.039 7.565-3.65 9.127-3.268C36.057 50.962 53 40.199 53 25.249 53 12.847 41.136 2.794 26.5 2.794z" fill="#F8931F"/><path d="M15.832 28.329a3.361 3.361 0 100-6.723 3.361 3.361 0 000 6.723zm11.029 0a3.361 3.361 0 100-6.723 3.361 3.361 0 000 6.723zm11.029 0a3.361 3.361 0 100-6.723 3.361 3.361 0 000 6.723z" fill="#FFF7E8"/><path d="M39.373 44.517c-17.006 4.16-34.04-6.662-34.04-21.693 0-7.573 4.401-14.275 11.154-18.37C6.816 7.8 0 15.85 0 25.249c0 5.986 2.765 11.425 7.272 15.45.634.567.886 1.462.886 2.311v5.783c0 1.025.985 1.69 1.857 1.3 6.8-3.039 7.565-3.65 9.127-3.268 7.544 1.845 15.095.726 21.144-2.406a3.02 3.02 0 00-.913.098z" fill="#EB8816"/></svg>