<svg width="69" height="69" fill="none" xmlns="http://www.w3.org/2000/svg"><path d="M34.5 3.637C15.446 3.637 0 16.726 0 32.871c0 7.794 3.6 14.875 9.467 20.115.825.737 1.154 1.903 1.154 3.008v7.529c0 .609.28 1.177.747 1.514.015.006.749.59 1.67.179 8.853-3.956 9.85-4.752 11.882-4.255C46.942 66.347 69 52.335 69 32.87 69 16.726 53.554 3.637 34.5 3.637z" fill="#F0C087"/><path d="M20.611 36.881a4.376 4.376 0 100-8.752 4.376 4.376 0 000 8.752zm14.359 0a4.376 4.376 0 100-8.752 4.376 4.376 0 000 8.752zm14.36 0a4.376 4.376 0 100-8.752 4.376 4.376 0 000 8.752z" fill="#FFF7E8"/><path d="M51.26 57.956C29.12 63.372 6.941 49.283 6.941 29.715c0-9.86 5.73-18.585 14.523-23.916C8.874 10.156 0 20.634 0 32.87c0 7.794 3.6 14.875 9.467 20.115.825.737 1.154 1.903 1.154 3.009v7.528c0 1.334 1.282 2.2 2.417 1.693 8.853-3.956 9.85-4.752 11.882-4.255 9.823 2.403 19.652.946 27.529-3.133a3.96 3.96 0 00-1.19.128z" fill="#E1AD6F"/></svg>