<svg width="87" height="87" fill="none" xmlns="http://www.w3.org/2000/svg"><g clip-path="url(#clip0)"><path d="M43.496 35.26L4.806 53.05v27.963h77.38V53.049l-38.69-17.788z" fill="#E2E2E2"/><path d="M87 53.875l-1.753 4.458L43.5 39.146 1.816 58.305 0 53.875 43.5 33.87 87 53.875z" fill="#F15B29"/><path d="M43.497 18.687l-19.49 16.835v45.491h38.98V35.522l-19.49-16.835z" fill="#EFEFEF"/><path d="M67.915 35.122L43.498 13.97 19.234 34.945l2.955 3.71 21.309-18.416L65.12 38.971l2.794-3.849z" fill="#F15B29"/><path d="M43.5 59.395a7.473 7.473 0 00-7.473 7.473v14.145h14.941V66.868a7.471 7.471 0 00-7.468-7.472z" fill="#fff"/><path d="M42.178 4.134h2.793v12.234h-2.793V4.134z" fill="#F15B29"/><path d="M37.977 7.21H49.17v2.621H37.977v-2.62z" fill="#F15B29"/><path d="M33.242 39.185c-.642 0-1.162.52-1.162 1.162v5.537a1.162 1.162 0 002.324 0v-5.537c0-.641-.52-1.162-1.162-1.162zm5.126 0c-.64 0-1.16.52-1.16 1.161v5.538a1.162 1.162 0 102.322 0v-5.537c0-.641-.52-1.162-1.162-1.162zm5.132 0c-.642 0-1.162.52-1.162 1.162v5.537a1.162 1.162 0 002.323 0v-5.537c0-.641-.52-1.162-1.161-1.162zm5.124 0c-.642 0-1.162.52-1.163 1.161v5.538a1.162 1.162 0 002.324 0v-5.537c0-.64-.52-1.16-1.161-1.162zm5.128 0c-.642 0-1.162.52-1.162 1.162v5.537a1.162 1.162 0 002.323 0v-5.537c0-.641-.52-1.162-1.161-1.162zM72.297 61.7a2.328 2.328 0 00-2.328 2.328v2.329h4.657v-2.328a2.33 2.33 0 00-2.33-2.33zm0 9.456a2.328 2.328 0 00-2.328 2.328v2.33h4.657v-2.33a2.328 2.328 0 00-2.328-2.328h-.001zM14.698 61.7a2.33 2.33 0 00-2.329 2.329v2.328h4.657v-2.328a2.328 2.328 0 00-2.327-2.33zm0 9.456a2.328 2.328 0 00-2.329 2.327v2.331h4.657v-2.33a2.328 2.328 0 00-2.328-2.328z" fill="#3A556A"/><path d="M.744 80.291h85.514v2.575H.744v-2.575z" fill="#D8D8D8"/></g><defs><clipPath id="clip0"><path fill="#fff" d="M0 0h87v87H0z"/></clipPath></defs></svg>