<svg width="81" height="81" fill="none" xmlns="http://www.w3.org/2000/svg"><path d="M39.103 5.586H72.62c3.072 0 5.586 2.514 5.586 5.586v19.552c0 3.072-2.514 5.586-5.586 5.586H54.465v5.297a.698.698 0 01-1.192.494l-5.79-5.79h-8.38c-3.073 0-5.586-2.515-5.586-5.587V11.172c0-3.072 2.513-5.586 5.586-5.586z" fill="#C7CFE2"/><path d="M71.177 16.759h-20.9v-2.793H61.4c.744 0 1.393-.562 1.441-1.304a1.396 1.396 0 00-1.393-1.49H50.276V5.586h-2.793v19.552c0 3.072-2.514 5.586-5.586 5.586h-8.38c0 1.02.298 1.967.781 2.793h7.599c4.62 0 8.38-3.759 8.38-8.38h5.542c.7 0 1.325-.496 1.425-1.189a1.397 1.397 0 00-1.382-1.603h-5.586v-2.793h20.949c.803 0 1.446-.677 1.393-1.49-.048-.742-.697-1.303-1.441-1.303z" fill="#AFB9D2"/><path d="M71.225 13.966h-4.19a1.396 1.396 0 110-2.794h4.19a1.396 1.396 0 110 2.793zm-.001 11.172h-9.776a1.396 1.396 0 110-2.793h9.776a1.396 1.396 0 110 2.793z" fill="#959CB3"/><path d="M71.224 30.724H51.672a1.396 1.396 0 110-2.793h19.552a1.396 1.396 0 110 2.793z" fill="#AFB9D2"/><path d="M41.896 0H8.38C5.307 0 2.793 2.514 2.793 5.586v19.552c0 3.072 2.514 5.586 5.586 5.586h18.155v5.297c0 .622.753.933 1.192.494l5.791-5.79h8.38c3.072 0 5.586-2.515 5.586-5.587V5.586C47.483 2.514 44.969 0 41.896 0z" fill="#E4EAF6"/><path d="M13.966 8.38h-4.19a1.396 1.396 0 110-2.794h4.19a1.396 1.396 0 110 2.793z" fill="#AFB9D2"/><path d="M40.5 8.38H19.552a1.396 1.396 0 110-2.794H40.5a1.396 1.396 0 110 2.793zm0 5.586H9.777a1.396 1.396 0 110-2.794h30.725a1.396 1.396 0 110 2.794z" fill="#C7CFE2"/><path d="M40.5 19.552h-4.19a1.396 1.396 0 110-2.794h4.19a1.396 1.396 0 110 2.794z" fill="#AFB9D2"/><path d="M30.725 19.552H9.777a1.396 1.396 0 110-2.794h20.948a1.396 1.396 0 110 2.794zm9.775 5.586H9.777a1.396 1.396 0 110-2.793h30.725a1.396 1.396 0 110 2.793z" fill="#C7CFE2"/><path d="M26.75 70.042V65.53H15.148v4.512l5.8 5.157 5.802-5.157z" fill="#E6AF78"/><path d="M35.719 72.153l-7.976-1.877a1.275 1.275 0 01-.335-.135l-6.46 3.768-6.208-3.95c-.16.151-.36.264-.587.317l-7.976 1.877a2.579 2.579 0 00-1.988 2.51v5.048A1.29 1.29 0 005.479 81h30.939a1.29 1.29 0 001.289-1.29v-5.048a2.579 2.579 0 00-1.988-2.51z" fill="#EFF2FA"/><path d="M15.148 65.53v4.76c7.307 2.634 11.602-3.956 11.602-3.956v-.804H15.148z" fill="#D29B6E"/><path d="M12.57 50.706l.561 12.356a3.868 3.868 0 001.543 2.919l2.665 1.999a3.87 3.87 0 002.32.773h2.579c.837 0 1.65-.272 2.32-.773l2.665-2a3.867 3.867 0 001.543-2.918l.562-12.357H12.569z" fill="#F0C087"/><path d="M19.015 53.284c2.578 0 6.445-.645 7.363-2.578H12.569l.562 12.357a3.868 3.868 0 001.543 2.918l2.665 1.999a3.87 3.87 0 002.32.773h1.29c-1.29 0-3.868-2.578-3.868-5.8v-7.736c0-.644.645-1.933 1.934-1.933z" fill="#E6AF78"/><path d="M32.974 76.817l4.177-3.752c.35.443.555 1 .555 1.597v5.049A1.29 1.29 0 0136.417 81h-4.512v-1.786a3.22 3.22 0 011.07-2.397zm-24.053 0l-4.176-3.752c-.35.443-.556 1-.556 1.597v5.049A1.29 1.29 0 005.479 81H9.99v-1.786a3.22 3.22 0 00-1.07-2.397z" fill="#E4EAF6"/><path d="M22.56 81h-3.223l.403-5.801h2.417l.403 5.8z" fill="#5B5D6E"/><path d="M22.56 73.91h-3.223v.372c0 .862.699 1.561 1.561 1.561h.1a1.56 1.56 0 001.561-1.561v-.373z" fill="#515262"/><path d="M15.056 68.607l5.892 5.302s-1.65.834-3.686 2.512a.827.827 0 01-1.281-.29l-2.768-6.09.876-1.313a.645.645 0 01.967-.12zm11.784 0l-5.892 5.302s1.65.834 3.686 2.512a.827.827 0 001.281-.29l2.768-6.09-.876-1.313a.645.645 0 00-.967-.12z" fill="#E4EAF6"/><path d="M24.855 46.435l.605 4.27c2.758.552 3.156 4.881 3.213 6.117.01.225.082.442.204.63l1.052 1.633s-.36-2.7 1.29-4.512c0 0 .565-10.716-6.364-8.138z" fill="#785550"/><path d="M30.576 58.809l-.728 2.912a.775.775 0 01-1.52-.092l-.373-2.978c-.1-.797.521-1.5 1.324-1.5h.003c.867 0 1.505.816 1.294 1.658z" fill="#F0C087"/><path d="M13.187 45.28l.954.652c-4.31 3.182-3.505 8.64-3.505 8.64 1.289 1.29 1.289 4.513 1.289 4.513l1.29-1.29s-.498-3.723 1.933-5.156c2.256-1.33 4.23-.644 6.244-.644 5.398 0 6.909-2.035 6.647-4.512-.135-1.282-2.096-3.952-7.09-3.868-2.016.034-5.801.645-7.762 1.666z" fill="#694B4B"/><path d="M12.811 51.43s-.685-2.699 1.33-5.498c-4.31 3.182-3.505 8.64-3.505 8.64 1.289 1.29 1.289 4.513 1.289 4.513l1.29-1.29s-.498-3.724 1.933-5.156c2.256-1.33 4.23-.645 6.244-.645.878 0 1.643-.058 2.324-.16-4.157.14-6.608-3.009-10.905-.404z" fill="#5A4146"/><path d="M11.32 58.809l.729 2.912a.775.775 0 001.52-.092l.373-2.978c.1-.797-.522-1.5-1.324-1.5h-.003c-.868 0-1.505.816-1.294 1.658z" fill="#E6AF78"/><path d="M28.683 79.71H25.46A1.29 1.29 0 0024.17 81h5.802a1.29 1.29 0 00-1.289-1.29z" fill="#E4EAF6"/><path d="M57.258 44.032c-13.002 0-11.56 15.813-11.501 27.272.002.432.229.822.6 1.046 1.44.869 5.397 2.9 10.901 2.9 5.505 0 9.462-2.031 10.903-2.9.37-.224.597-.614.6-1.046.059-11.46 1.5-27.272-11.502-27.272z" fill="#694B4B"/><path d="M56.42 44.065C44.329 44.743 45.7 60.1 45.758 71.304c.002.432.229.822.6 1.046 1.44.869 5.398 2.9 10.902 2.9l3.286-23.003" fill="#5A4146"/><path d="M57.258 44.032c-7.393 0-7.906 8.934-7.906 8.934 4.261-.719 6.88 1.078 11.193-.719L57.258 75.25c5.505 0 9.462-2.03 10.903-2.9.37-.223.597-.613.6-1.046.059-11.458 1.5-27.27-11.502-27.27z" fill="#694B4B"/><path d="M68.76 71.304c.052-9.847 1.115-22.898-6.835-26.38-.139.721-.39 2.732.263 4.037 1.643 3.286 3.286 3.286 4.929 5.75 1.643 9.037-3.14 18.629-4.728 19.934 2.815-.67 4.832-1.728 5.772-2.295.37-.223.598-.613.6-1.046z" fill="#785550"/><path d="M69.707 73.796l-7.33-3.054a1.643 1.643 0 01-1.01-1.517V67.24H53.15v1.985c0 .663-.399 1.262-1.011 1.517l-7.33 3.054a2.465 2.465 0 00-1.517 2.275v3.286c0 .907.736 1.643 1.643 1.643H69.58c.907 0 1.643-.736 1.643-1.643V76.07c0-.995-.598-1.892-1.517-2.275z" fill="#E6AF78"/><path d="M69.707 73.796l-7.087-2.953-5.361 2.314-5.362-2.314-7.087 2.953a2.465 2.465 0 00-1.517 2.275v3.286c0 .907.736 1.643 1.643 1.643h24.645c.907 0 1.643-.736 1.643-1.643V76.07c0-.995-.598-1.892-1.517-2.275z" fill="#B4E1FA"/><path d="M61.366 67.24H53.15v1.985c0 .663-.399 1.262-1.011 1.517l-1.145.477c8.761 2.234 10.37-3.98 10.37-3.98z" fill="#D29B6E"/><path d="M47.297 76.974L44 74.35a2.459 2.459 0 00-.707 1.72v3.286c0 .907.736 1.643 1.643 1.643h3.286v-2.102c0-.748-.34-1.456-.925-1.924zm23.927 2.383V76.07a2.46 2.46 0 00-.696-1.71l-3.308 2.613a2.465 2.465 0 00-.925 1.924V81h3.286c.907 0 1.643-.736 1.643-1.643zm-13.843 0h-.246a.698.698 0 01-.698-.699v-5.5h1.643v5.5a.698.698 0 01-.699.699z" fill="#A0D2F0"/><path d="M57.259 73.157l-4.702-3.527a.657.657 0 00-.941.161l-.93 1.394 2.883 4.036c.22.306.651.366.945.13l2.745-2.194z" fill="#A0D2F0"/><path d="M57.258 73.157l4.702-3.527a.657.657 0 01.94.161l.93 1.394-2.883 4.036a.657.657 0 01-.945.13l-2.744-2.194z" fill="#A0D2F0"/><path d="M61.367 51.426c-4.108 4.107-12.169.822-12.169 7.393l.51 4.841a3.286 3.286 0 001.677 2.575l4.677 2.599c.745.413 1.65.413 2.394 0l4.677-2.599a3.286 3.286 0 001.677-2.575l.589-5.749c.042-.409.05-.82.037-1.23-.307-2.091-3.248-3.612-4.07-5.255z" fill="#F0C087"/><path d="M49.198 58.82l.51 4.84a3.286 3.286 0 001.677 2.576l4.677 2.598a2.455 2.455 0 001.673.25s-2.358-.715-3.762-4.514c-.43-1.164-1.026-7.325-.513-8.078 1.015-1.489 6.675-1.643 8.347-4.404a4.592 4.592 0 01-.229-.309l-.018-.025a3.174 3.174 0 01-.193-.328c-4.108 4.107-12.169.821-12.169 7.393z" fill="#E6AF78"/><path d="M63.256 79.357H61.12c-.771 0-1.396.625-1.396 1.396V81h4.929v-.247c0-.77-.626-1.396-1.397-1.396z" fill="#A0D2F0"/></svg>