<svg width="88" height="88" fill="none" xmlns="http://www.w3.org/2000/svg"><path d="M66.758 21.241l.66-7.25a3.035 3.035 0 01.875-1.871l9.085-9.086a1.517 1.517 0 012.146 0l5.44 5.44a1.517 1.517 0 010 2.147l-9.085 9.085a3.035 3.035 0 01-1.87.876l-7.251.66zM36.414 88c20.11 0 36.413-16.303 36.413-36.414 0-20.11-16.303-36.413-36.413-36.413C16.303 15.172 0 31.476 0 51.585 0 71.696 16.303 88 36.414 88z" fill="#FF6464"/><path d="M36.414 78.897c15.083 0 27.31-12.228 27.31-27.31 0-15.084-12.227-27.311-27.31-27.311-15.083 0-27.31 12.227-27.31 27.31 0 15.083 12.227 27.31 27.31 27.31z" fill="#fff"/><path d="M36.414 69.793c10.055 0 18.207-8.151 18.207-18.207 0-10.055-8.152-18.207-18.207-18.207-10.056 0-18.207 8.152-18.207 18.207 0 10.056 8.151 18.207 18.207 18.207z" fill="#FF6464"/><path d="M36.414 60.69a9.104 9.104 0 100-18.207 9.104 9.104 0 000 18.207z" fill="#fff"/><path d="M36.414 53.103a1.517 1.517 0 01-1.073-2.59L85.41.446a1.517 1.517 0 112.145 2.145L37.486 52.66a1.511 1.511 0 01-1.072.444z" fill="#464655"/><path d="M87.556.445a1.517 1.517 0 00-2.146 0l-2.59 2.59 2.146 2.145 2.59-2.59a1.517 1.517 0 000-2.145z" fill="#FF6464"/></svg>