<svg width="84" height="84" fill="none" xmlns="http://www.w3.org/2000/svg"><g clip-path="url(#clip0)"><path d="M14.474 26.19c-13.476 0-11.982 16.388-11.92 28.264.002.448.237.852.62 1.084 1.494.9 5.595 3.005 11.3 3.005 5.705 0 9.806-2.105 11.3-3.005.383-.232.618-.636.62-1.084.062-11.876 1.556-28.265-11.92-28.265z" fill="#694B4B"/><path d="M13.606 26.223c-12.534.703-11.113 16.62-11.053 28.23.003.45.238.854.622 1.085 1.493.9 5.594 3.005 11.299 3.005l3.406-23.84" fill="#5A4146"/><path d="M14.474 26.19c-7.663 0-8.195 9.259-8.195 9.259 4.417-.745 7.13 1.117 11.6-.745l-3.405 23.839c5.705 0 9.806-2.105 11.3-3.005.383-.232.618-.636.62-1.084.062-11.876 1.556-28.265-11.92-28.265z" fill="#694B4B"/><path d="M26.395 54.454c.053-10.205 1.154-23.732-7.085-27.34-.144.747-.404 2.831.273 4.184 1.702 3.405 3.405 3.405 5.108 5.96 1.703 9.365-3.254 19.305-4.9 20.659 2.917-.694 5.008-1.791 5.982-2.379.384-.231.62-.636.622-1.084z" fill="#785550"/><path d="M27.376 57.037L19.78 53.87a1.703 1.703 0 01-1.05-1.57v-2.057h-8.514V52.3c0 .687-.413 1.307-1.048 1.571l-7.597 3.166A2.555 2.555 0 000 59.395V62.8c0 .94.762 1.703 1.703 1.703h25.542c.94 0 1.703-.762 1.703-1.703v-3.405c0-1.032-.62-1.962-1.572-2.358z" fill="#E6AF78"/><path d="M27.376 57.037l-7.346-3.061-5.556 2.398-5.557-2.398-7.345 3.06A2.554 2.554 0 000 59.395V62.8c0 .94.762 1.703 1.703 1.703h25.542c.94 0 1.703-.762 1.703-1.703v-3.405c0-1.032-.62-1.962-1.572-2.358z" fill="#EFF2FA"/><path d="M18.73 50.242h-8.513v2.057c0 .688-.414 1.308-1.048 1.572l-1.187.495c9.08 2.315 10.749-4.124 10.749-4.124z" fill="#D29B6E"/><path d="M4.15 60.33L.732 57.612A2.549 2.549 0 000 59.395V62.8c0 .94.762 1.703 1.703 1.703h3.406v-2.178c0-.776-.353-1.51-.96-1.995zm24.798 2.47v-3.406a2.55 2.55 0 00-.721-1.771l-3.428 2.707a2.554 2.554 0 00-.96 1.995v2.178h3.407c.94 0 1.702-.762 1.702-1.703zm-14.347 0h-.255a.724.724 0 01-.724-.723v-5.7h1.703v5.7c0 .4-.324.723-.724.723z" fill="#E4EAF6"/><path d="M14.474 56.374L9.601 52.72a.681.681 0 00-.975.167l-.963 1.444 2.988 4.183c.227.318.674.38.98.136l2.843-2.276zm.001 0l4.873-3.654a.681.681 0 01.975.167l.963 1.444-2.988 4.183a.681.681 0 01-.98.136l-2.843-2.276z" fill="#E4EAF6"/><path d="M18.73 33.852c-4.257 4.257-12.61.851-12.61 7.663l.528 5.017A3.406 3.406 0 008.385 49.2l4.848 2.693c.771.428 1.71.428 2.48 0l4.848-2.693a3.405 3.405 0 001.738-2.67l.61-5.958c.044-.423.053-.85.039-1.275-.319-2.167-3.366-3.743-4.217-5.446z" fill="#F0C087"/><path d="M6.12 41.515l.528 5.017a3.406 3.406 0 001.737 2.669l4.848 2.693c.535.297 1.15.374 1.734.259 0 0-2.444-.74-3.9-4.678-.445-1.207-1.063-7.592-.531-8.373 1.052-1.542 6.917-1.702 8.65-4.564a4.788 4.788 0 01-.236-.32l-.019-.025a3.242 3.242 0 01-.2-.34c-4.258 4.256-12.612.85-12.612 7.662z" fill="#E6AF78"/><path d="M20.69 62.8h-2.214c-.8 0-1.448.648-1.448 1.448v.255h5.109v-.255c0-.8-.648-1.448-1.448-1.448z" fill="#E4EAF6"/><path d="M72.644 53.078v-4.676H60.619v4.676l6.012 5.344 6.013-5.344z" fill="#E6AF78"/><path d="M81.94 55.266l-8.266-1.945c-.125-.03-.24-.08-.347-.14l-6.696 3.906-6.434-4.095a1.331 1.331 0 01-.608.329l-8.266 1.945a2.672 2.672 0 00-2.06 2.601v5.232c0 .738.598 1.336 1.336 1.336h32.065c.738 0 1.336-.598 1.336-1.336v-5.232c0-1.24-.853-2.317-2.06-2.601z" fill="#EFF2FA"/><path d="M60.62 48.402v4.934c7.573 2.729 12.024-4.1 12.024-4.1v-.834H60.619z" fill="#D29B6E"/><path d="M57.946 33.037l.583 12.807a4.008 4.008 0 001.599 3.025l2.762 2.071c.694.52 1.538.802 2.405.802h2.672c.867 0 1.71-.281 2.404-.802l2.763-2.071a4.008 4.008 0 001.599-3.025l.582-12.807H57.946z" fill="#F0C087"/><path d="M64.627 35.71c2.672 0 6.68-.669 7.63-2.673h-14.31l.581 12.807a4.008 4.008 0 001.6 3.025l2.762 2.071a4.01 4.01 0 002.404.802h1.337c-1.337 0-4.009-2.672-4.009-6.012v-8.017c0-.668.668-2.004 2.005-2.004z" fill="#E6AF78"/><path d="M79.096 60.099l4.329-3.889a2.67 2.67 0 01.576 1.657v5.231c0 .738-.599 1.337-1.337 1.337h-4.676v-1.851a3.34 3.34 0 011.108-2.485z" fill="#E4EAF6"/><path d="M68.301 64.435h-3.34l.418-6.013h2.505l.417 6.013z" fill="#5B5D6E"/><path d="M68.301 57.086h-3.34v.386c0 .894.724 1.618 1.618 1.618h.104c.894 0 1.618-.724 1.618-1.618v-.386z" fill="#515262"/><path d="M60.526 51.591l6.106 5.495s-1.71.864-3.82 2.604a.857.857 0 01-1.328-.3l-2.869-6.312.908-1.36a.668.668 0 011.003-.127zm12.212 0l-6.106 5.495s1.71.864 3.82 2.604a.857.857 0 001.328-.3l2.868-6.312-.907-1.36a.668.668 0 00-1.003-.127z" fill="#E4EAF6"/><path d="M70.68 28.611l.627 4.426c2.859.572 3.27 5.058 3.33 6.34.011.232.085.457.211.653l1.091 1.692s-.373-2.798 1.336-4.677c0 0 .587-11.106-6.594-8.434z" fill="#785550"/><path d="M76.61 41.436l-.755 3.017a.803.803 0 01-1.577-.095l-.385-3.086a1.383 1.383 0 011.372-1.554h.003c.9 0 1.56.845 1.341 1.718z" fill="#F0C087"/><path d="M58.587 27.415l.988.675c-4.467 3.298-3.632 8.955-3.632 8.955 1.336 1.337 1.336 4.676 1.336 4.676l1.336-1.336s-.516-3.86 2.004-5.344c2.338-1.377 4.384-.668 6.472-.668 5.594 0 7.16-2.108 6.889-4.676-.14-1.328-2.172-4.096-7.349-4.008-2.089.035-6.012.668-8.044 1.726z" fill="#694B4B"/><path d="M58.197 33.789s-.71-2.798 1.378-5.7c-4.467 3.3-3.632 8.956-3.632 8.956 1.336 1.337 1.336 4.676 1.336 4.676l1.336-1.336s-.516-3.86 2.004-5.344c2.338-1.378 4.384-.668 6.471-.668.91 0 1.703-.06 2.41-.165-4.31.145-6.849-3.119-11.303-.42z" fill="#5A4146"/><path d="M56.652 41.436l.755 3.017a.803.803 0 001.576-.095l.386-3.086a1.383 1.383 0 00-1.372-1.554h-.003c-.9 0-1.56.845-1.342 1.718z" fill="#E6AF78"/><path d="M74.647 63.099h-3.34c-.738 0-1.336.598-1.336 1.336h6.012c0-.738-.598-1.336-1.336-1.336z" fill="#E4EAF6"/><path d="M42.025 9.434c-22.91 0-20.37 27.86-20.265 48.049.004.762.403 1.45 1.057 1.843 2.538 1.53 9.51 5.109 19.208 5.109 9.698 0 16.67-3.578 19.209-5.109a2.156 2.156 0 001.056-1.843c.105-20.19 2.645-48.05-20.265-48.05z" fill="#694B4B"/><path d="M40.55 9.49c-21.307 1.195-18.892 28.253-18.79 47.992a2.16 2.16 0 001.057 1.844c2.539 1.53 9.51 5.108 19.209 5.108l5.79-40.527" fill="#5A4146"/><path d="M42.025 9.434c-13.027 0-13.931 15.74-13.931 15.74 7.508-1.266 12.122 1.9 19.72-1.266l-5.79 40.527c9.699 0 16.67-3.578 19.21-5.109a2.156 2.156 0 001.056-1.843c.105-20.19 2.645-48.05-20.265-48.05z" fill="#694B4B"/><path d="M62.29 57.483c.09-17.348 1.963-40.344-12.044-46.477-.244 1.27-.686 4.813.463 7.112 2.895 5.79 5.79 5.79 8.685 10.132 2.894 15.921-5.532 32.82-8.33 35.12 4.958-1.179 8.513-3.045 10.17-4.044a2.156 2.156 0 001.056-1.843z" fill="#785550"/><path d="M63.96 61.874l-12.916-5.381a2.895 2.895 0 01-1.781-2.673v-3.498H34.789v3.498a2.895 2.895 0 01-1.782 2.673l-12.915 5.381a4.342 4.342 0 00-2.672 4.008v5.79a2.895 2.895 0 002.895 2.895h43.421a2.895 2.895 0 002.895-2.895v-5.79a4.342 4.342 0 00-2.672-4.008z" fill="#E6AF78"/><path d="M63.96 61.874l-12.488-5.203-9.446 4.077-9.447-4.077-12.487 5.203a4.342 4.342 0 00-2.672 4.008v5.79a2.895 2.895 0 002.895 2.895h43.421a2.895 2.895 0 002.895-2.895v-5.79a4.342 4.342 0 00-2.672-4.008z" fill="#B4E1FA"/><path d="M49.263 50.322H34.789v3.498a2.895 2.895 0 01-1.782 2.673l-2.017.84c15.436 3.936 18.273-7.01 18.273-7.01z" fill="#D29B6E"/><path d="M24.474 67.473l-5.81-4.62a4.333 4.333 0 00-1.244 3.03v5.789a2.895 2.895 0 002.895 2.894h5.79v-3.702a4.341 4.341 0 00-1.63-3.39zm42.158 4.198v-5.79a4.333 4.333 0 00-1.227-3.011l-5.828 4.603a4.342 4.342 0 00-1.63 3.39v3.703h5.79a2.895 2.895 0 002.895-2.895zm-24.606.001c-.8 0-1.448-.648-1.448-1.448v-9.473h2.895v9.473c0 .8-.648 1.448-1.447 1.448z" fill="#A0D2F0"/><path d="M42.026 60.748l-8.285-6.214a1.158 1.158 0 00-1.658.284l-1.637 2.456 5.08 7.11c.385.54 1.146.646 1.665.231l4.834-3.867z" fill="#A0D2F0"/><path d="M42.025 60.748l8.285-6.214a1.158 1.158 0 011.658.284l1.637 2.456-5.08 7.11a1.158 1.158 0 01-1.665.231l-4.835-3.867z" fill="#A0D2F0"/><path d="M49.263 22.46c-7.237 7.237-21.44 1.448-21.44 13.027l.9 8.53a5.79 5.79 0 002.953 4.536l8.241 4.578a4.342 4.342 0 004.218 0l8.24-4.578a5.79 5.79 0 002.955-4.537l1.037-10.13c.074-.72.09-1.444.066-2.167-.542-3.684-5.723-6.364-7.17-9.259z" fill="#F0C087"/><path d="M53.604 71.672h-5.79c-.799 0-1.447.648-1.447 1.447v1.447h8.684V73.12c0-.8-.648-1.447-1.447-1.447z" fill="#A0D2F0"/></g><defs><clipPath id="clip0"><path fill="#fff" d="M0 0h84v84H0z"/></clipPath></defs></svg>