<svg width="18" height="18" fill="none" xmlns="http://www.w3.org/2000/svg"><g clip-path="url(#clip0)" fill="#fff"><path d="M9.003 4.378a4.618 4.618 0 100 9.237 4.618 4.618 0 100-9.237zm0 7.617a2.997 2.997 0 110-5.996 2.997 2.997 0 110 5.996z"/><path d="M12.711.058c-1.656-.078-5.758-.074-7.415 0-1.457.068-2.741.42-3.777 1.455C-.212 3.244.009 5.577.009 8.998c0 3.5-.195 5.779 1.51 7.484 1.738 1.737 4.104 1.51 7.484 1.51 3.468 0 4.665.002 5.891-.473 1.668-.647 2.926-2.137 3.05-4.814.077-1.657.073-5.758 0-7.415-.15-3.16-1.845-5.076-5.233-5.232zm2.621 15.278c-1.134 1.135-2.709 1.034-6.35 1.034-3.75 0-5.254.055-6.352-1.045-1.263-1.257-1.035-3.277-1.035-6.34 0-4.143-.425-7.127 3.734-7.34C6.284 1.61 6.566 1.6 8.97 1.6l.034.022c3.996 0 7.132-.418 7.32 3.74.043.948.053 1.233.053 3.635 0 3.706.07 5.219-1.046 6.34z"/><path d="M13.804 5.275a1.08 1.08 0 100-2.158 1.08 1.08 0 000 2.158z"/></g><defs><clipPath id="clip0"><path fill="#fff" d="M0 0h18v18H0z"/></clipPath></defs></svg>