<svg width="196" height="53" fill="none" xmlns="http://www.w3.org/2000/svg"><g clip-path="url(#clip0)"><path d="M62.982 16.268h4.913l5.902 17.965 5.966-17.965h4.913l-8.455 23.659h-4.819l-8.42-23.66zm39.263 23.659h-4.183v-2.523c-1.118 2.045-3.448 3.071-5.902 3.071-5.619 0-8.902-4.38-8.902-9.336 0-5.529 3.99-9.301 8.902-9.301 3.19 0 5.137 1.691 5.902 3.1V22.38h4.183v17.547zm-14.81-8.7c0 2.175 1.566 5.34 5.331 5.34 2.33 0 3.86-1.214 4.66-2.811.418-.766.606-1.598.671-2.464a5.582 5.582 0 00-.476-2.464c-.736-1.662-2.36-3.1-4.884-3.1-3.383 0-5.296 2.747-5.296 5.464v.035h-.006zm17.87-8.853h3.96v2.305c.765-1.568 2.2-2.812 4.848-2.847v4.22h-.194c-2.936 0-4.437 1.374-4.437 4.415v9.46h-4.183V22.374h.006zm9.933-6.106h4.178v3.742h-4.178v-3.742zm0 6.106h4.178v17.553h-4.178V22.374zm11.096 10.197c.159 3.195 2.301 3.802 3.319 3.802 1.818 0 3.224-1.474 3.224-3.136 0-2.016-1.694-2.529-4.977-3.837-1.789-.637-5.902-2.11-5.902-6.584 0-4.538 3.989-7.002 7.82-7.002 3.13 0 7.278 1.662 7.466 6.908h-4.689c-.194-1.085-.606-2.912-2.936-2.912-1.565 0-2.907 1.085-2.907 2.688-.029 1.756 1.248 2.204 5.237 3.866 3.607 1.568 5.619 3.295 5.619 6.649 0 3.802-2.33 7.356-7.884 7.356-5.361 0-8.138-3.23-8.109-7.798h4.719zm16.506-.029c.194 2.811 2.683 4.379 5.072 4.35 2.042 0 3.413-.926 4.213-2.364h4.307c-.83 1.95-2.077 3.419-3.542 4.409-1.471 1.025-3.189 1.532-5.013 1.532-5.396 0-9.256-4.38-9.256-9.271 0-4.987 3.895-9.366 9.191-9.366 2.618 0 4.913.99 6.543 2.688 2.136 2.204 2.936 4.957 2.583 8.022H142.84zm9.991-3.2c-.159-1.663-1.912-3.997-4.978-3.968-3.095 0-4.79 2.24-4.948 3.967h9.926zm6.101-6.968h3.924c0 .766 0 1.503-.029 2.334.765-1.373 2.33-2.912 5.46-2.876 5.713.03 6.796 4.409 6.796 7.515v10.58h-4.178v-9.531c0-2.623-.859-4.639-3.795-4.639-2.965.03-3.989 2.016-3.989 4.474v9.684h-4.178V22.374h-.011zm37.069 17.553h-3.99v-2.523c-.765 1.308-2.424 3.07-6.001 3.07-5.396 0-8.873-4.22-8.873-9.335 0-5.688 4.054-9.302 8.808-9.302 3.348 0 5.231 1.792 5.872 2.812v-8.381h4.184v23.659zm-14.681-8.794c0 2.97 2.136 5.405 5.36 5.405a5.48 5.48 0 003.896-1.598 5.157 5.157 0 001.5-3.902c0-1.532-.606-2.847-1.565-3.772-.959-.96-2.301-1.532-3.795-1.532-3.413 0-5.396 2.622-5.396 5.37v.029z" fill="#fff"/><path d="M36.48 0l-7.296 53V13.25L36.48 0z" fill="#F15A29"/><path d="M36.48 0h21.888L29.184 53 36.48 0z" fill="#F7941E"/><path d="M21.888 0l7.296 53L0 0h21.888z" fill="#F15A29"/></g><defs><clipPath id="clip0"><path fill="#fff" d="M0 0h196v53H0z"/></clipPath></defs></svg>