<svg width="198" height="52" fill="none" xmlns="http://www.w3.org/2000/svg"><g clip-path="url(#clip0)"><g clip-path="url(#clip1)"><path d="M59.953 17.366h4.677l5.618 17.079 5.68-17.079h4.676l-8.049 22.491h-4.587l-8.015-22.49zm37.376 22.491h-3.983V37.46c-1.064 1.944-3.282 2.92-5.618 2.92-5.349 0-8.474-4.164-8.474-8.876 0-5.256 3.797-8.842 8.474-8.842 3.036 0 4.89 1.608 5.618 2.947v-2.431h3.983v16.68zm-14.098-8.27c0 2.068 1.49 5.076 5.074 5.076 2.218 0 3.674-1.154 4.436-2.672.398-.729.577-1.519.639-2.342a5.3 5.3 0 00-.454-2.343c-.7-1.58-2.246-2.947-4.649-2.947-3.22 0-5.04 2.611-5.04 5.194v.034h-.006zm17.009-8.416h3.769v2.19c.729-1.49 2.095-2.672 4.616-2.706v4.012h-.185c-2.795 0-4.223 1.306-4.223 4.197v8.993h-3.983V23.171h.006zm9.455-5.805h3.977v3.558h-3.977v-3.558zm0 5.805h3.977v16.686h-3.977V23.171zm10.563 9.693c.151 3.037 2.19 3.615 3.159 3.615 1.731 0 3.069-1.401 3.069-2.981 0-1.917-1.613-2.404-4.738-3.648-1.703-.605-5.618-2.006-5.618-6.259 0-4.314 3.797-6.656 7.444-6.656 2.979 0 6.928 1.58 7.107 6.567h-4.464c-.184-1.031-.576-2.768-2.795-2.768-1.489 0-2.766 1.03-2.766 2.555-.028 1.67 1.187 2.095 4.985 3.675 3.433 1.49 5.349 3.133 5.349 6.32 0 3.615-2.218 6.994-7.506 6.994-5.102 0-7.746-3.071-7.718-7.413h4.492zm15.711-.027c.185 2.672 2.554 4.163 4.828 4.135 1.944 0 3.249-.88 4.011-2.247h4.1c-.79 1.854-1.978 3.25-3.372 4.19-1.401.976-3.036 1.458-4.772 1.458-5.137 0-8.811-4.163-8.811-8.814 0-4.74 3.708-8.904 8.749-8.904 2.492 0 4.677.942 6.228 2.555 2.034 2.096 2.795 4.713 2.459 7.627h-13.42zm9.511-3.043c-.152-1.58-1.821-3.799-4.739-3.771-2.946 0-4.559 2.13-4.71 3.771h9.449zm5.809-6.623h3.736c0 .728 0 1.429-.028 2.219.728-1.306 2.218-2.768 5.198-2.735 5.438.028 6.469 4.192 6.469 7.145v10.057h-3.977v-9.06c0-2.494-.818-4.41-3.612-4.41-2.823.028-3.798 1.916-3.798 4.253v9.206H151.3V23.171h-.011zm35.289 16.686h-3.797V37.46c-.729 1.244-2.308 2.92-5.713 2.92-5.137 0-8.447-4.012-8.447-8.876 0-5.407 3.859-8.842 8.385-8.842 3.187 0 4.979 1.703 5.59 2.673v-7.968h3.982v22.491zm-13.975-8.36c0 2.824 2.034 5.139 5.103 5.139a5.217 5.217 0 003.708-1.519 4.896 4.896 0 001.428-3.71c0-1.456-.577-2.706-1.49-3.585-.913-.914-2.19-1.457-3.612-1.457-3.249 0-5.137 2.493-5.137 5.104v.028z" fill="#000"/><path d="M34.727 1.901L27.78 52.285V14.497l6.946-12.596z" fill="#F15A29"/><path d="M34.727 1.901h20.836L27.78 52.285l6.946-50.384z" fill="#F7941E"/><path d="M20.836 1.901l6.945 50.384L0 1.901h20.836z" fill="#F15A29"/></g></g><defs><clipPath id="clip0"><path fill="#fff" d="M0 0h198v52H0z"/></clipPath><clipPath id="clip1"><path fill="#fff" transform="translate(0 1.901)" d="M0 0h186.577v50.384H0z"/></clipPath></defs></svg>