<svg width="334" height="90" fill="none" xmlns="http://www.w3.org/2000/svg"><g clip-path="url(#clip0)"><path d="M107.039 27.6h8.35l10.03 30.48 10.14-30.48h8.35l-14.37 40.14h-8.19l-14.31-40.14zm66.731 40.14h-7.11v-4.28c-1.9 3.47-5.86 5.21-10.03 5.21-9.55 0-15.13-7.43-15.13-15.84 0-9.38 6.78-15.78 15.13-15.78 5.42 0 8.73 2.87 10.03 5.26v-4.34h7.11v29.77zM148.6 52.98c0 3.69 2.66 9.06 9.06 9.06 3.96 0 6.56-2.06 7.92-4.77.71-1.3 1.03-2.71 1.14-4.18.05-1.41-.22-2.87-.81-4.18-1.25-2.82-4.01-5.26-8.3-5.26-5.75 0-9 4.66-9 9.27v.06h-.01zm30.369-15.02h6.73v3.91c1.3-2.66 3.74-4.77 8.24-4.83v7.16h-.33c-4.99 0-7.54 2.33-7.54 7.49v16.05h-7.11V37.96h.01zM195.85 27.6h7.1v6.35h-7.1V27.6zm0 10.36h7.1v29.78h-7.1V37.96zm18.86 17.3c.27 5.42 3.91 6.45 5.64 6.45 3.09 0 5.48-2.5 5.48-5.32 0-3.42-2.88-4.29-8.46-6.51-3.04-1.08-10.03-3.58-10.03-11.17 0-7.7 6.78-11.88 13.29-11.88 5.32 0 12.37 2.82 12.69 11.72h-7.97c-.33-1.84-1.03-4.94-4.99-4.94-2.66 0-4.94 1.84-4.94 4.56-.05 2.98 2.12 3.74 8.9 6.56 6.13 2.66 9.55 5.59 9.55 11.28 0 6.45-3.96 12.48-13.4 12.48-9.11 0-13.83-5.48-13.78-13.23h8.02zm28.05-.05c.33 4.77 4.56 7.43 8.62 7.38 3.47 0 5.8-1.57 7.16-4.01h7.32c-1.41 3.31-3.53 5.8-6.02 7.48-2.5 1.74-5.42 2.6-8.52 2.6-9.17 0-15.73-7.43-15.73-15.73 0-8.46 6.62-15.89 15.62-15.89 4.45 0 8.35 1.68 11.12 4.56 3.63 3.74 4.99 8.41 4.39 13.61h-23.96zm16.98-5.43c-.27-2.82-3.25-6.78-8.46-6.73-5.26 0-8.14 3.8-8.41 6.73h16.87zm10.369-11.82h6.67c0 1.3 0 2.55-.05 3.96 1.3-2.33 3.96-4.94 9.28-4.88 9.71.05 11.55 7.48 11.55 12.75v17.95h-7.1V51.57c0-4.45-1.46-7.87-6.45-7.87-5.04.05-6.78 3.42-6.78 7.59v16.43h-7.1V37.96h-.02zm63 29.78h-6.78v-4.28c-1.3 2.22-4.12 5.21-10.2 5.21-9.17 0-15.08-7.16-15.08-15.84 0-9.65 6.89-15.78 14.97-15.78 5.69 0 8.89 3.04 9.98 4.77V27.6h7.11v40.14zm-24.95-14.92c0 5.04 3.63 9.17 9.11 9.17 2.6 0 4.94-1.03 6.62-2.71 1.68-1.68 2.66-4.01 2.55-6.62 0-2.6-1.03-4.83-2.66-6.4-1.63-1.63-3.91-2.6-6.45-2.6-5.8 0-9.17 4.45-9.17 9.11v.05z" fill="#000"/><path d="M62 0L49.6 89.92V22.48L62 0z" fill="#F15A29"/><path d="M62 0h37.2L49.6 89.92 62 0z" fill="#F7941E"/><path d="M37.2 0l12.4 89.92L0 0h37.2z" fill="#F15A29"/></g><defs><clipPath id="clip0"><path fill="#fff" d="M0 0h333.11v89.92H0z"/></clipPath></defs></svg>