<svg width="72" height="72" fill="none" xmlns="http://www.w3.org/2000/svg"><g clip-path="url(#clip0)"><path d="M60.881 11.913s3.823 2.942 9.116 2.942c0 0-3.823 7.057-13.38 3.529 0 0 3.089 3.97 6.323 4.998 0 0-8.161 5.735-13.086-1.176 0 0-4.264 6.469-11.322.882h-5.064c-7.058 5.587-11.322-.882-11.322-.882-4.925 6.91-13.086 1.176-13.086 1.176 3.234-1.029 6.323-4.998 6.323-4.998-9.557 3.528-13.38-3.53-13.38-3.53 5.292 0 9.116-2.94 9.116-2.94C.679 12.795 0 4.561 0 4.561c3.304.918 7.549.912 12.078.43a91.864 91.864 0 006.098-.872c9.263-1.617 9.851 11.764 15.292 11.764h5.064c5.44 0 6.027-13.38 15.292-11.764C60.525 5.29 67.24 5.884 72 4.562c0 0-.678 8.234-11.119 7.351z" fill="#F15B29"/><path d="M35.575 15.883l-1.837 5.01c-14.543 0-8.468-10.787-17.253-11.491-4.795-.386-4.407-4.408-4.407-4.408v-.001a91.87 91.87 0 006.098-.873c9.263-1.617 9.851 11.764 15.292 11.764h2.107zm.851 0l1.836 5.01c14.543 0 8.469-10.787 17.254-11.491 4.795-.386 4.407-4.408 4.407-4.408v-.001a91.864 91.864 0 01-6.098-.873c-9.263-1.617-9.852 11.764-15.292 11.764h-2.107z" fill="#E84D1A"/><path d="M38.532 5.945V69.5a2.396 2.396 0 11-4.794 0V5.945h4.794z" fill="#E84D1A"/><path d="M38.533 5.945V69.5c0 .945-.547 1.763-1.343 2.153a2.4 2.4 0 01-1.342-2.153V5.945h2.685z" fill="#F15B29"/><path d="M52.37 50.367c-.7 2.633-4.667 6.444-13.443 8.666-7.43 1.88-10.162 5.035-9.41 8.05a5.09 5.09 0 00.745 1.615s-4.51-2.537-3.5-7.332c1.5-7.11 19.83-6.833 19.83-12.998 0-7.443-30.7-3.333-30.7-18.497 0-11.798 10.32-12.043 12.757-9.672a1.7 1.7 0 01.447.674c1 3-.5 7.665-6 8.331 0 0-3.72 5.277 14.276 8.278 13.439 2.24 16.44 7.443 14.997 12.885z" fill="#F4D5BA"/><path d="M25.678 48.368c0 6.165 18.331 5.888 19.83 12.998 1.011 4.795-3.5 7.332-3.5 7.332 2.333-3.443.111-7.443-8.665-9.665C24.569 56.811 20.6 53 19.902 50.367c-1.444-5.442 1.558-10.646 14.997-12.885 17.996-3 14.275-8.278 14.275-8.278-5.499-.666-6.999-5.33-5.998-8.331.152-.454.56-.858 1.142-1.172 3.27-1.767 12.06-.72 12.06 10.17 0 15.164-30.7 11.054-30.7 18.497z" fill="#FFE7CF"/><path d="M42.009 68.698c2.332-3.443.11-7.443-8.666-9.665C24.567 56.811 20.6 53 19.901 50.367c-.999-3.768.133-7.422 5.384-10.057 1.663.602 3.438 1.096 5.224 1.53-8.174 2.549-7.873 4.344-7.873 6.619 0 2.875 2.928 6.178 11.12 8.437 8.193 2.257 13.286 6.769 8.253 11.802zm.574-30.061c-1.529-.443-3.26-.83-5.212-1.155a91.46 91.46 0 01-1.236-.215c16.585-3.032 13.037-8.063 13.037-8.063-5.498-.666-6.998-5.33-5.997-8.331.151-.453.559-.858 1.141-1.171 0 2.582 3.63 7.184 7.561 7.95 0 0 3.245 6.895-9.294 10.985z" fill="#F4D5BA"/><path d="M29.454 57.84c1.032.38 2.154.736 3.375 1.06-.476.19-.89.367-1.23.537-3.463 1.732-3.416 4.42-2.082 7.646.218.525.47 1.063.745 1.615 0 0-4.51-2.537-3.499-7.332.303-1.44 1.297-2.577 2.69-3.526h.001zm10.429-1.556c-1.18-.507-2.458-.964-3.748-1.402 5.142-1.742 10.457-3.195 10.457-6.514 0-4.708-12.28-4.794-21.307-8.058h-.001c-5.245-1.897-9.391-4.867-9.391-10.439 0-11.798 10.319-12.043 12.756-9.672-4.475.353-10.282 2.14-10.282 9.036 0 12.608 31.976 9.348 31.186 19.535-.342 4.41-4.714 5.535-9.67 7.514z" fill="#FFE7CF"/><path d="M42.078 5.945a5.947 5.947 0 01-5.944 5.944 5.945 5.945 0 115.944-5.944z" fill="#E84D1A"/><path d="M42.079 5.945c0 2.63-1.707 4.86-4.075 5.644a5.95 5.95 0 01-4.074-5.644A5.95 5.95 0 0138.004.3a5.947 5.947 0 014.075 5.645z" fill="#F15B29"/><path d="M22.909 24.442c-.452 0-.867-.287-1.03-.707a1.116 1.116 0 01.313-1.236c.36-.312.904-.347 1.306-.093.38.24.581.705.492 1.148-.102.508-.56.888-1.081.888zm26.453 0c-.461 0-.884-.298-1.04-.732a1.114 1.114 0 01.34-1.224 1.116 1.116 0 011.29-.08c.387.246.589.725.486 1.174a1.114 1.114 0 01-1.076.863z" fill="#3B3D4D"/><path d="M39.94 5.945c0-.993-.58-1.798-1.294-1.798-.715 0-1.294.805-1.294 1.798s.58 1.798 1.294 1.798c.714 0 1.294-.805 1.294-1.798z" fill="#fff"/></g><defs><clipPath id="clip0"><path fill="#fff" d="M0 0h72v72H0z"/></clipPath></defs></svg>