<svg width="73" height="73" fill="none" xmlns="http://www.w3.org/2000/svg"><path d="M39.386 56.563l-2.886-2.01-2.886 2.01V68.04l2.886 1.324 2.886-1.324V56.563z" fill="#E4EAF6"/><path d="M22.528 71.675h27.944c.882 0 2.094-1.155 2.094-2.48a2.476 2.476 0 00-2.094-1.155H22.528c-.882 0-1.655.462-2.094 1.155 0 1.325 1.212 2.48 2.094 2.48z" fill="#A6AEC4"/><path d="M36.5 51.453l-2.886 1.137v3.973a22.289 22.289 0 005.772 0V52.59L36.5 51.453z" fill="#E4EAF6"/><path d="M14.326 27.954c0 12.227 7.684 23.498 22.174 23.498 14.822 0 22.174-11.271 22.174-23.498v-8.169a2.208 2.208 0 00-4.415 0v6.05h-6.37a1.104 1.104 0 100 2.208h6.37v2.56c0 9.793-7.967 17.759-17.759 17.759-9.792 0-17.758-7.967-17.758-17.759v-2.56h6.37a1.104 1.104 0 100-2.208h-6.37v-6.05a2.208 2.208 0 00-4.416 0v8.17z" fill="#ECEAEC"/><path d="M23.787 27.08c0 7.02 3.852 14.037 12.713 14.037 9.19 0 12.713-7.017 12.713-14.038v-1.895l-1.325-1.104 1.325-1.104v-3.51l-1.325-1.104 1.325-1.104v-3.512l-1.325-1.033 1.271-1.174C48.567 5.068 43.125 0 36.5 0c-6.624 0-12.066 5.068-12.658 11.539l1.27 1.174-1.324 1.033v3.512l1.325 1.104-1.325 1.104v3.51l1.325 1.104-1.325 1.104v1.895z" fill="#454D58"/><path d="M36.5 39.792c-7.021 0-12.713-5.692-12.713-12.713v1.615l.143 1.022-.09 1.186c.593 6.471 6.035 11.54 12.66 11.54s12.067-5.069 12.66-11.54l-.124-.894.177-1.313v-1.616c0 7.021-5.692 12.713-12.713 12.713zm-7.203-27.149c0 .611-.494 1.104-1.103 1.104h-4.407v-1.033c0-.396.018-.787.055-1.174h4.352c.609 0 1.104.494 1.104 1.104zm0 5.719c0 .61-.494 1.104-1.103 1.104h-4.407v-2.208h4.407c.609 0 1.104.493 1.104 1.104zm0 5.718c0 .61-.494 1.104-1.103 1.104h-4.407v-2.208h4.407c.609 0 1.104.495 1.104 1.104z" fill="#3C434C"/><path d="M28.194 28.694h-4.302v1.338l.48.87h3.821a1.103 1.103 0 100-2.208z" fill="#3C434C"/><path d="M23.893 28.695h-.106v1.034c0 .396.02.787.056 1.173h.53a12.595 12.595 0 01-.48-2.207zm25.321-15.982v1.034h-4.407a1.103 1.103 0 110-2.208h4.352c.037.387.055.778.055 1.174zm0 4.545v2.208h-4.407a1.104 1.104 0 010-2.208h4.407zm0 5.718v2.208h-4.407a1.104 1.104 0 010-2.208h4.407zm-.106 5.718h.001-4.301a1.104 1.104 0 000 2.207h3.82l.422-.709.058-1.498z" fill="#3C434C"/><path d="M49.108 28.695a12.636 12.636 0 01-.48 2.207h.53c.035-.386.056-.777.056-1.173v-1.034h-.106z" fill="#3C434C"/><path d="M36.5 50.128c-12.227 0-22.174-9.947-22.174-22.174v2.65c0 12.226 9.947 22.173 22.174 22.173s22.174-9.947 22.174-22.173v-2.65c0 12.227-9.947 22.174-22.174 22.174z" fill="#DAD8DB"/><path d="M50.472 70.35H22.528a2.476 2.476 0 01-2.094-1.155A2.48 2.48 0 0022.528 73h27.944a2.48 2.48 0 002.094-3.805 2.476 2.476 0 01-2.094 1.156z" fill="#959DB0"/></svg>