<svg width="82" height="82" fill="none" xmlns="http://www.w3.org/2000/svg"><g clip-path="url(#clip0)"><path d="M82 30.168v35.279a8.466 8.466 0 01-8.466 8.465H8.466A8.466 8.466 0 010 65.446V16.553a8.465 8.465 0 018.466-8.465h51.453L82 30.168z" fill="#F1F4F6"/><path d="M75.4 30.168v9.137c0 1.028-11.981 18.636-13.01 18.636l1.626 7.715-10.772-1.874-8.888-1.548-35.89-14.399A1.868 1.868 0 016.6 45.97V16.553c0-1.03.836-1.866 1.866-1.866h51.453L75.4 30.168z" fill="#fff"/><path d="M59.92 21.703V8.088L82 30.168H68.386a8.465 8.465 0 01-8.465-8.465z" fill="#F9F6F9"/><path d="M37.296 61.066c0 2.188-.368 4.29-1.05 6.246H8.466A1.868 1.868 0 016.6 65.448V45.969a18.967 18.967 0 0111.635-3.964c10.528 0 19.06 8.533 19.06 19.061z" fill="#A3E489"/><path d="M9.233 61.066c0 2.188.368 4.29 1.047 6.247H8.466A1.868 1.868 0 016.6 65.447V45.97a18.967 18.967 0 0111.635-3.965c1.74 0 3.427.233 5.029.67-8.087 2.208-14.031 9.604-14.031 18.39z" fill="#7DD190"/><path d="M63.256 67.312h-37.8c1.212-9.358 9.212-16.584 18.9-16.584 9.689 0 17.687 7.226 18.9 16.584z" fill="#A3E489"/><path d="M49.384 51.4c-7.315 1.994-12.876 8.236-13.871 15.913H25.455c1.213-9.359 9.212-16.585 18.9-16.585 1.74 0 3.427.232 5.029.671z" fill="#7DD190"/><path d="M75.4 39.305v26.142a1.868 1.868 0 01-1.866 1.865H54.793a18.95 18.95 0 01-2.462-9.37c0-10.527 8.533-19.06 19.06-19.06 1.376 0 2.717.145 4.009.423z" fill="#A3E489"/><path d="M75.4 39.305v.56C67.84 42.39 62.39 49.53 62.39 57.94a18.975 18.975 0 002.46 9.371H54.79a18.843 18.843 0 01-1.547-3.53 19.045 19.045 0 01-.913-5.84c0-10.527 8.533-19.06 19.06-19.06 1.376 0 2.717.145 4.01.423z" fill="#7DD190"/><path d="M32.21 37.02a8.947 8.947 0 100-17.892 8.947 8.947 0 000 17.893z" fill="#FFD88F"/><path d="M35.037 36.565a8.938 8.938 0 01-2.826.456 8.948 8.948 0 010-17.893c.988 0 1.939.16 2.826.454a8.95 8.95 0 000 16.982z" fill="#FFC963"/></g><defs><clipPath id="clip0"><path fill="#fff" d="M0 0h82v82H0z"/></clipPath></defs></svg>