<svg width="70" height="70" fill="none" xmlns="http://www.w3.org/2000/svg"><g clip-path="url(#clip0)"><path d="M51.055 70H18.942a5.634 5.634 0 01-5.633-5.634V5.634A5.634 5.634 0 0118.942 0h32.113a5.634 5.634 0 015.634 5.634v58.732A5.634 5.634 0 0151.055 70z" fill="#454D58"/><path d="M51.055 0H46.83a5.634 5.634 0 015.634 5.634v58.732A5.634 5.634 0 0146.83 70h4.225a5.634 5.634 0 005.634-5.634V5.634A5.634 5.634 0 0051.055 0z" fill="#414A56"/><path d="M45.344 5.352a1.904 1.904 0 01-1.904 1.904H26.557a1.904 1.904 0 01-1.904-1.904c0-.622-.505-1.127-1.127-1.127h-3.88a2.113 2.113 0 00-2.113 2.113v57.324c0 1.167.946 2.113 2.113 2.113H50.35a2.113 2.113 0 002.113-2.113V6.338a2.113 2.113 0 00-2.113-2.113h-3.88c-.622 0-1.126.505-1.126 1.127z" fill="#F9F7F8"/><path d="M35 4.684a1.056 1.056 0 100-2.112 1.056 1.056 0 000 2.112z" fill="#335E80"/><path d="M24.275 29.576a11.29 11.29 0 002.619-7.65c-.205-5.978-5.102-10.81-11.082-10.937-6.428-.138-11.672 5.074-11.586 11.49.083 6.226 5.263 11.183 11.49 11.183H26.08a.563.563 0 00.398-.962l-2.167-2.167a.708.708 0 01-.036-.957z" fill="#F0C087"/><path d="M24.312 30.533a.708.708 0 01-.037-.957 11.29 11.29 0 002.62-7.65c-.205-5.978-5.102-10.81-11.083-10.937a11.409 11.409 0 00-2.372.196c5.108.967 9.046 5.394 9.23 10.74.1 2.915-.903 5.591-2.62 7.651a.708.708 0 00.037.957l2.167 2.167a.564.564 0 01-.399.962h4.226a.563.563 0 00.398-.962l-2.167-2.167z" fill="#E1AD6F"/><path d="M15.562 23.38a1.056 1.056 0 100-2.112 1.056 1.056 0 000 2.112zm4.227 0a1.056 1.056 0 100-2.112 1.056 1.056 0 000 2.112zm-8.451 0a1.056 1.056 0 100-2.112 1.056 1.056 0 000 2.112z" fill="#FDD1D5"/><path d="M46.031 33.662h-15.68a1.056 1.056 0 110-2.113h15.68a1.056 1.056 0 110 2.113zm0-4.225h-15.68a1.056 1.056 0 010-2.113h15.68a1.056 1.056 0 110 2.113zm.001-4.226H32.465a1.056 1.056 0 110-2.112h13.567a1.056 1.056 0 010 2.112zm-6.339 33.803h-15.68a1.056 1.056 0 110-2.112h15.68a1.056 1.056 0 110 2.112zm0-4.225h-15.68a1.056 1.056 0 110-2.113h15.68a1.056 1.056 0 110 2.113zm-2.113-4.226H24.014a1.056 1.056 0 110-2.112H37.58a1.056 1.056 0 110 2.112z" fill="#DEDAEE"/><path d="M45.724 54.929a11.29 11.29 0 01-2.62-7.651c.206-5.978 5.103-10.809 11.083-10.937 6.427-.138 11.672 5.074 11.586 11.49-.084 6.226-5.263 11.183-11.49 11.183H43.92a.563.563 0 01-.399-.962l2.167-2.167a.708.708 0 00.037-.956z" fill="#A3E489"/><path d="M54.188 36.34a11.31 11.31 0 00-1.853.197c5.295 1.004 9.288 5.69 9.213 11.294-.083 6.226-5.263 11.183-11.49 11.183h4.226c6.227 0 11.406-4.957 11.49-11.183.085-6.416-5.159-11.628-11.587-11.49z" fill="#7DD190"/><path d="M54.435 48.733a1.056 1.056 0 100-2.113 1.056 1.056 0 000 2.113zm-4.225 0a1.056 1.056 0 100-2.113 1.056 1.056 0 000 2.113zm8.452 0a1.056 1.056 0 100-2.113 1.056 1.056 0 000 2.113z" fill="#D5EFC8"/></g><defs><clipPath id="clip0"><path fill="#fff" d="M0 0h70v70H0z"/></clipPath></defs></svg>