<svg width="19" height="19" fill="none" xmlns="http://www.w3.org/2000/svg"><path d="M18.88 9.13c-.17-.232-4.215-5.685-9.38-5.685C4.335 3.445.29 8.898.12 9.13a.627.627 0 000 .74c.17.232 4.215 5.685 9.38 5.685 5.165 0 9.21-5.453 9.38-5.685a.626.626 0 000-.74zM9.5 14.302c-3.805 0-7.1-3.62-8.076-4.802.974-1.185 4.263-4.802 8.076-4.802 3.805 0 7.1 3.619 8.076 4.802-.975 1.185-4.263 4.802-8.076 4.802z" fill="#ABA8A3"/><path d="M9.5 5.742A3.763 3.763 0 005.742 9.5 3.763 3.763 0 009.5 13.258 3.763 3.763 0 0013.26 9.5 3.763 3.763 0 009.5 5.742zm0 6.263A2.508 2.508 0 016.995 9.5 2.508 2.508 0 019.5 6.995 2.508 2.508 0 0112.006 9.5 2.508 2.508 0 019.5 12.005z" fill="#ABA8A3"/></svg>