<svg width="83" height="83" fill="none" xmlns="http://www.w3.org/2000/svg"><g clip-path="url(#clip0)"><path d="M22.896 45.793h-2.862v32.914h2.862V45.793zM14.31 61.535h-2.862v17.172h2.862V61.535zm17.173-27.19h-2.862v44.362h2.862V34.345zm8.587 31.483h-2.863v12.879h2.862v-12.88zm8.585-5.725h-2.862v18.604h2.862V60.104zm8.585-8.586h-2.86v27.19h2.862v-27.19zm8.588-45.793h-2.862v72.983h2.862V5.724zm8.586 62.966h-2.862v10.017h2.862V68.69z" fill="#EFF2FA"/><path d="M72.983 70.121a1.43 1.43 0 01-.453-.074l-25.758-8.586c-.302-.1-.561-.3-.738-.564l-16.05-24.075-7.374 9.83c-.436.58-1.24.743-1.865.377L3.572 37.012a1.431 1.431 0 011.443-2.472l16.07 9.375 7.823-10.43c.278-.37.712-.604 1.184-.57.464.012.893.25 1.15.636l16.9 25.35 25.294 8.431a1.431 1.431 0 01-.453 2.79z" fill="#AFB9D2"/><path d="M4.291 80.138a1.43 1.43 0 01-1.279-2.071L11.6 60.895c.28-.563.899-.874 1.516-.772l25.154 4.193L54.503 52.14l8.486-46.67a1.431 1.431 0 012.816.512l-8.587 47.223a1.43 1.43 0 01-.549.89L39.497 66.971a1.42 1.42 0 01-1.095.267l-24.716-4.12-8.113 16.228a1.43 1.43 0 01-1.282.791z" fill="#8F96AC"/><path d="M4.293 71.552H1.431a1.431 1.431 0 010-2.863h2.862v2.863zm0-8.587H1.431a1.431 1.431 0 010-2.862h2.862v2.862zm0-8.585H1.431a1.431 1.431 0 010-2.863h2.862v2.862zm0-8.587H1.431a1.431 1.431 0 010-2.862h2.862v2.862zm0-8.586H1.431a1.431 1.431 0 010-2.862h2.862v2.862zm0-8.587H1.431a1.431 1.431 0 010-2.862h2.862v2.863zm0-8.586H1.431a1.431 1.431 0 010-2.862h2.862v2.862zm0-8.586H1.431a1.431 1.431 0 010-2.862h2.862v2.862zm70.121 67.259v2.862a1.431 1.431 0 01-2.862 0v-2.862h2.862zm-8.586 0v2.862a1.431 1.431 0 01-2.862 0v-2.862h2.862zm-8.587 0v2.862a1.431 1.431 0 01-2.862 0v-2.862h2.862zm-8.586 0v2.862a1.431 1.431 0 01-2.862 0v-2.862h2.862zm-8.585 0v2.862a1.431 1.431 0 01-2.863 0v-2.862h2.862zm-8.588 0v2.862a1.431 1.431 0 01-2.862 0v-2.862h2.862zm-8.586 0v2.862a1.431 1.431 0 01-2.862 0v-2.862h2.862zm-8.586 0v2.862a1.431 1.431 0 01-2.862 0v-2.862h2.862z" fill="#D7DEED"/><path d="M4.293 83c-.79 0-1.43-.64-1.43-1.431V1.43a1.431 1.431 0 012.862 0v80.14c0 .79-.641 1.431-1.432 1.431z" fill="#C7CFE2"/><path d="M0 78.707c0-.79.64-1.431 1.431-1.431H81.57a1.431 1.431 0 010 2.862H1.431A1.43 1.43 0 010 78.707z" fill="#C7CFE2"/><path d="M12.88 64.397a2.862 2.862 0 100-5.725 2.862 2.862 0 000 5.725z" fill="#FF6464"/><path d="M21.466 48.655a2.862 2.862 0 100-5.724 2.862 2.862 0 000 5.724zm8.586-11.448a2.862 2.862 0 100-5.724 2.862 2.862 0 000 5.724zm17.172 25.758a2.862 2.862 0 100-5.724 2.862 2.862 0 000 5.724zm25.759 8.587a2.862 2.862 0 100-5.724 2.862 2.862 0 000 5.724z" fill="#C3E678"/><path d="M38.637 68.69a2.862 2.862 0 100-5.724 2.862 2.862 0 000 5.724zM55.81 55.81a2.862 2.862 0 100-5.724 2.862 2.862 0 000 5.724zm8.586-47.224a2.862 2.862 0 100-5.724 2.862 2.862 0 000 5.724z" fill="#FF6464"/></g><defs><clipPath id="clip0"><path fill="#fff" d="M0 0h83v83H0z"/></clipPath></defs></svg>