<svg width="91" height="91" fill="none" xmlns="http://www.w3.org/2000/svg"><g clip-path="url(#clip0)"><path d="M50.818 6.113a5.319 5.319 0 01-10.636 0c0-2.937 10.636-2.937 10.636 0z" fill="#3B3D4D"/><path d="M45.5 10.7c-21.166 0-38.326 17.16-38.326 38.326h76.653c0-21.167-17.16-38.326-38.326-38.326z" fill="#EFEFEF"/><path d="M45.5 10.7c-1.789 0-3.548.125-5.272.363C58.9 13.632 73.284 29.648 73.284 49.027h10.544c0-21.168-17.16-38.327-38.327-38.327z" fill="#E2E2E2"/><path d="M88.37 54.84H2.63A2.63 2.63 0 010 52.21v-1.674a2.63 2.63 0 012.63-2.629h85.74a2.63 2.63 0 012.63 2.63v1.673a2.63 2.63 0 01-2.63 2.63z" fill="#D8D8D8"/><path d="M22.2 84.105l.63-2.69c.887-3.79 3.885-6.801 7.636-7.67 3.965-.918 8.532-.343 11.621.168 3.485.578 7.146.38 10.588-.57l5.05-1.396a24.629 24.629 0 008.717-4.409l8.71-7.713c2.267-1.674.588-6.845-3.561-4.265l-8.572 5.674-8.48 2.453-6.019.131 4.058-2.149a3.288 3.288 0 001.5-4.244 3.222 3.222 0 00-1.137-1.362 3.42 3.42 0 00-2.605-.51l-11.892 2.48-9.08-2.45c-1.298-.35-2.575-.78-3.894-.744-3.379.092-6.736 1.697-9.234 4.07l-.028.026-11.142 13.53L22.2 84.105z" fill="#FFE7CF"/><path d="M75.068 55.28l-9.638 7.005c-2.598 2.044-8.655 5.912-30.98 3.99-3.121-.269-7.657-1.087-11.622-.169-2.984.692-8.74 8.007-10.97 10.971L22.2 84.105l.63-2.689c.887-3.791 3.885-6.802 7.637-7.67 3.965-.919 8.531-.344 11.62.168a24.78 24.78 0 0010.588-.572l5.05-1.395a24.642 24.642 0 008.717-4.41l8.71-7.713c1.442-1.065 1.287-3.545-.085-4.544z" fill="#F4D5BA"/><path d="M25.491 79.068L7.971 67.166a2.417 2.417 0 00-3.358.643l-2.56 3.776a2.416 2.416 0 00.643 3.355l17.52 11.902a2.417 2.417 0 003.358-.643l2.56-3.775a2.417 2.417 0 00-.643-3.356z" fill="#F15B29"/><path d="M25.49 79.068l-6.73-4.572-5.272 7.776 6.727 4.57c1.066.724 2.5.479 3.274-.531l2.717-4.008a2.414 2.414 0 00-.715-3.235z" fill="#E84D1A"/></g><defs><clipPath id="clip0"><path fill="#fff" d="M0 0h91v91H0z"/></clipPath></defs></svg>