<svg width="563" height="843" fill="none" xmlns="http://www.w3.org/2000/svg"><circle cx="1.5" cy="1.5" r="1.5" fill="#fff" fill-opacity=".38"/><circle cx="1.5" cy="241.5" r="1.5" fill="#fff" fill-opacity=".38"/><circle cx="1.5" cy="81.5" r="1.5" fill="#fff" fill-opacity=".38"/><circle cx="1.5" cy="281.5" r="1.5" fill="#fff" fill-opacity=".38"/><circle cx="1.5" cy="121.5" r="1.5" fill="#fff" fill-opacity=".38"/><circle cx="1.5" cy="321.5" r="1.5" fill="#fff" fill-opacity=".38"/><circle cx="1.5" cy="161.5" r="1.5" fill="#fff" fill-opacity=".38"/><circle cx="1.5" cy="401.5" r="1.5" fill="#fff" fill-opacity=".38"/><circle cx="1.5" cy="441.5" r="1.5" fill="#fff" fill-opacity=".38"/><circle cx="1.5" cy="481.5" r="1.5" fill="#fff" fill-opacity=".38"/><circle cx="41.5" cy="201.5" r="1.5" fill="#fff" fill-opacity=".38"/><circle cx="41.5" cy="41.5" r="1.5" fill="#fff" fill-opacity=".38"/><circle cx="41.5" cy="241.5" r="1.5" fill="#fff" fill-opacity=".38"/><circle cx="41.5" cy="81.5" r="1.5" fill="#fff" fill-opacity=".38"/><circle cx="41.5" cy="121.5" r="1.5" fill="#fff" fill-opacity=".38"/><circle cx="41.5" cy="161.5" r="1.5" fill="#fff" fill-opacity=".38"/><circle cx="41.5" cy="361.5" r="1.5" fill="#fff" fill-opacity=".38"/><circle cx="41.5" cy="401.5" r="1.5" fill="#fff" fill-opacity=".38"/><circle cx="41.5" cy="441.5" r="1.5" fill="#fff" fill-opacity=".38"/><circle cx="81.5" cy="1.5" r="1.5" fill="#fff" fill-opacity=".38"/><circle cx="81.5" cy="201.5" r="1.5" fill="#fff" fill-opacity=".38"/><circle cx="81.5" cy="121.5" r="1.5" fill="#fff" fill-opacity=".38"/><circle cx="81.5" cy="321.5" r="1.5" fill="#fff" fill-opacity=".38"/><circle cx="81.5" cy="161.5" r="1.5" fill="#fff" fill-opacity=".38"/><circle cx="81.5" cy="361.5" r="1.5" fill="#fff" fill-opacity=".38"/><circle cx="81.5" cy="401.5" r="1.5" fill="#fff" fill-opacity=".38"/><circle cx="81.5" cy="481.5" r="1.5" fill="#fff" fill-opacity=".38"/><circle cx="81.5" cy="521.5" r="1.5" fill="#fff" fill-opacity=".38"/><circle cx="121.5" cy="1.5" r="1.5" fill="#fff" fill-opacity=".38"/><circle cx="121.5" cy="201.5" r="1.5" fill="#fff" fill-opacity=".38"/><circle cx="121.5" cy="41.5" r="1.5" fill="#fff" fill-opacity=".38"/><circle cx="121.5" cy="241.5" r="1.5" fill="#fff" fill-opacity=".38"/><circle cx="121.5" cy="81.5" r="1.5" fill="#fff" fill-opacity=".38"/><circle cx="121.5" cy="281.5" r="1.5" fill="#fff" fill-opacity=".38"/><circle cx="121.5" cy="121.5" r="1.5" fill="#fff" fill-opacity=".38"/><circle cx="120" cy="321" r="3" fill="#fff"/><circle cx="441" cy="201" r="3" fill="#fff"/><circle cx="41" cy="41" r="3" fill="#fff"/><circle cx="121.5" cy="401.5" r="1.5" fill="#fff" fill-opacity=".38"/><circle cx="121.5" cy="441.5" r="1.5" fill="#fff" fill-opacity=".38"/><circle cx="161.5" cy="1.5" r="1.5" fill="#fff" fill-opacity=".38"/><circle cx="161.5" cy="201.5" r="1.5" fill="#fff" fill-opacity=".38"/><circle cx="161.5" cy="41.5" r="1.5" fill="#fff" fill-opacity=".38"/><circle cx="161.5" cy="81.5" r="1.5" fill="#fff" fill-opacity=".38"/><circle cx="161.5" cy="281.5" r="1.5" fill="#fff" fill-opacity=".38"/><circle cx="161.5" cy="121.5" r="1.5" fill="#fff" fill-opacity=".38"/><circle cx="161.5" cy="321.5" r="1.5" fill="#fff" fill-opacity=".38"/><circle cx="161.5" cy="161.5" r="1.5" fill="#fff" fill-opacity=".38"/><circle cx="161.5" cy="361.5" r="1.5" fill="#fff" fill-opacity=".38"/><circle cx="161.5" cy="401.5" r="1.5" fill="#fff" fill-opacity=".38"/><circle cx="161.5" cy="481.5" r="1.5" fill="#fff" fill-opacity=".38"/><circle cx="161.5" cy="521.5" r="1.5" fill="#fff" fill-opacity=".38"/><circle cx="201.5" cy="201.5" r="1.5" fill="#fff" fill-opacity=".38"/><circle cx="201.5" cy="41.5" r="1.5" fill="#fff" fill-opacity=".38"/><circle cx="201.5" cy="241.5" r="1.5" fill="#fff" fill-opacity=".38"/><circle cx="201.5" cy="81.5" r="1.5" fill="#fff" fill-opacity=".38"/><circle cx="201.5" cy="281.5" r="1.5" fill="#fff" fill-opacity=".38"/><circle cx="201.5" cy="321.5" r="1.5" fill="#fff" fill-opacity=".38"/><circle cx="201.5" cy="161.5" r="1.5" fill="#fff" fill-opacity=".38"/><circle cx="201.5" cy="361.5" r="1.5" fill="#fff" fill-opacity=".38"/><circle cx="201.5" cy="401.5" r="1.5" fill="#fff" fill-opacity=".38"/><circle cx="201.5" cy="521.5" r="1.5" fill="#fff" fill-opacity=".38"/><circle cx="241.5" cy="1.5" r="1.5" fill="#fff" fill-opacity=".38"/><circle cx="241.5" cy="201.5" r="1.5" fill="#fff" fill-opacity=".38"/><circle cx="241.5" cy="41.5" r="1.5" fill="#fff" fill-opacity=".38"/><circle cx="241.5" cy="241.5" r="1.5" fill="#fff" fill-opacity=".38"/><circle cx="241.5" cy="81.5" r="1.5" fill="#fff" fill-opacity=".38"/><circle cx="241.5" cy="281.5" r="1.5" fill="#fff" fill-opacity=".38"/><circle cx="241.5" cy="121.5" r="1.5" fill="#fff" fill-opacity=".38"/><circle cx="241.5" cy="321.5" r="1.5" fill="#fff" fill-opacity=".38"/><circle cx="241.5" cy="161.5" r="1.5" fill="#fff" fill-opacity=".38"/><circle cx="241.5" cy="401.5" r="1.5" fill="#fff" fill-opacity=".38"/><circle cx="241.5" cy="441.5" r="1.5" fill="#fff" fill-opacity=".38"/><circle cx="241.5" cy="481.5" r="1.5" fill="#fff" fill-opacity=".38"/><circle cx="281.5" cy="1.5" r="1.5" fill="#fff" fill-opacity=".38"/><circle cx="281.5" cy="241.5" r="1.5" fill="#fff" fill-opacity=".38"/><circle cx="281.5" cy="281.5" r="1.5" fill="#fff" fill-opacity=".38"/><circle cx="281.5" cy="121.5" r="1.5" fill="#fff" fill-opacity=".38"/><circle cx="281.5" cy="321.5" r="1.5" fill="#fff" fill-opacity=".38"/><circle cx="281.5" cy="361.5" r="1.5" fill="#fff" fill-opacity=".38"/><circle cx="281.5" cy="401.5" r="1.5" fill="#fff" fill-opacity=".38"/><circle cx="281.5" cy="441.5" r="1.5" fill="#fff" fill-opacity=".38"/><circle cx="281.5" cy="481.5" r="1.5" fill="#fff" fill-opacity=".38"/><circle cx="281.5" cy="521.5" r="1.5" fill="#fff" fill-opacity=".38"/><circle cx="321.5" cy="1.5" r="1.5" fill="#fff" fill-opacity=".38"/><circle cx="321.5" cy="201.5" r="1.5" fill="#fff" fill-opacity=".38"/><circle cx="321" cy="39" r="3" fill="#fff"/><circle cx="321.5" cy="241.5" r="1.5" fill="#fff" fill-opacity=".38"/><circle cx="321.5" cy="81.5" r="1.5" fill="#fff" fill-opacity=".38"/><circle cx="321.5" cy="281.5" r="1.5" fill="#fff" fill-opacity=".38"/><circle cx="321.5" cy="121.5" r="1.5" fill="#fff" fill-opacity=".38"/><circle cx="321.5" cy="321.5" r="1.5" fill="#fff" fill-opacity=".38"/><circle cx="321.5" cy="161.5" r="1.5" fill="#fff" fill-opacity=".38"/><circle cx="321.5" cy="361.5" r="1.5" fill="#fff" fill-opacity=".38"/><circle cx="321.5" cy="401.5" r="1.5" fill="#fff" fill-opacity=".38"/><circle cx="321.5" cy="481.5" r="1.5" fill="#fff" fill-opacity=".38"/><circle cx="321.5" cy="521.5" r="1.5" fill="#fff" fill-opacity=".38"/><circle cx="361.5" cy="1.5" r="1.5" fill="#fff" fill-opacity=".38"/><circle cx="361.5" cy="201.5" r="1.5" fill="#fff" fill-opacity=".38"/><circle cx="361.5" cy="241.5" r="1.5" fill="#fff" fill-opacity=".38"/><circle cx="361.5" cy="81.5" r="1.5" fill="#fff" fill-opacity=".38"/><circle cx="361.5" cy="121.5" r="1.5" fill="#fff" fill-opacity=".38"/><circle cx="360" cy="401" r="3" fill="#fff"/><circle cx="361.5" cy="441.5" r="1.5" fill="#fff" fill-opacity=".38"/><circle cx="361.5" cy="521.5" r="1.5" fill="#fff" fill-opacity=".38"/><circle cx="401.5" cy="1.5" r="1.5" fill="#fff" fill-opacity=".38"/><circle cx="401.5" cy="201.5" r="1.5" fill="#fff" fill-opacity=".38"/><circle cx="401.5" cy="41.5" r="1.5" fill="#fff" fill-opacity=".38"/><circle cx="401.5" cy="241.5" r="1.5" fill="#fff" fill-opacity=".38"/><circle cx="401.5" cy="81.5" r="1.5" fill="#fff" fill-opacity=".38"/><circle cx="401.5" cy="321.5" r="1.5" fill="#fff" fill-opacity=".38"/><circle cx="401.5" cy="161.5" r="1.5" fill="#fff" fill-opacity=".38"/><circle cx="401.5" cy="361.5" r="1.5" fill="#fff" fill-opacity=".38"/><circle cx="401.5" cy="441.5" r="1.5" fill="#fff" fill-opacity=".38"/><circle cx="441.5" cy="1.5" r="1.5" fill="#fff" fill-opacity=".38"/><circle cx="441.5" cy="201.5" r="1.5" fill="#fff"/><circle cx="441.5" cy="241.5" r="1.5" fill="#fff" fill-opacity=".38"/><circle cx="441.5" cy="81.5" r="1.5" fill="#fff" fill-opacity=".38"/><circle cx="441.5" cy="281.5" r="1.5" fill="#fff" fill-opacity=".38"/><circle cx="441.5" cy="121.5" r="1.5" fill="#fff" fill-opacity=".38"/><circle cx="441.5" cy="321.5" r="1.5" fill="#fff" fill-opacity=".38"/><circle cx="441.5" cy="361.5" r="1.5" fill="#fff" fill-opacity=".38"/><circle cx="441.5" cy="401.5" r="1.5" fill="#fff" fill-opacity=".38"/><circle cx="441.5" cy="441.5" r="1.5" fill="#fff" fill-opacity=".38"/><circle cx="441.5" cy="481.5" r="1.5" fill="#fff" fill-opacity=".38"/><circle cx="481.5" cy="1.5" r="1.5" fill="#fff" fill-opacity=".38"/><circle cx="481.5" cy="241.5" r="1.5" fill="#fff" fill-opacity=".38"/><circle cx="481.5" cy="81.5" r="1.5" fill="#fff" fill-opacity=".38"/><circle cx="481.5" cy="281.5" r="1.5" fill="#fff" fill-opacity=".38"/><circle cx="481.5" cy="121.5" r="1.5" fill="#fff" fill-opacity=".38"/><circle cx="481.5" cy="321.5" r="1.5" fill="#fff" fill-opacity=".38"/><circle cx="481.5" cy="401.5" r="1.5" fill="#fff" fill-opacity=".38"/><circle cx="481.5" cy="441.5" r="1.5" fill="#fff" fill-opacity=".38"/><circle cx="481.5" cy="481.5" r="1.5" fill="#fff" fill-opacity=".38"/><circle cx="521.5" cy="201.5" r="1.5" fill="#fff" fill-opacity=".38"/><circle cx="521.5" cy="41.5" r="1.5" fill="#fff" fill-opacity=".38"/><circle cx="521.5" cy="241.5" r="1.5" fill="#fff" fill-opacity=".38"/><circle cx="521.5" cy="361.5" r="1.5" fill="#fff" fill-opacity=".38"/><circle cx="521.5" cy="441.5" r="1.5" fill="#fff" fill-opacity=".38"/><circle cx="521.5" cy="481.5" r="1.5" fill="#fff" fill-opacity=".38"/><circle cx="521.5" cy="521.5" r="1.5" fill="#fff" fill-opacity=".38"/><circle cx="561.5" cy="481.5" r="1.5" fill="#fff" fill-opacity=".38"/><circle cx="521.5" cy="281.5" r="1.5" fill="#fff" fill-opacity=".38"/><circle cx="561.5" cy="281.5" r="1.5" fill="#fff" fill-opacity=".38"/><circle cx="1.5" cy="321.5" r="1.5" fill="#fff" fill-opacity=".38"/><circle cx="1.5" cy="561.5" r="1.5" fill="#fff" fill-opacity=".38"/><circle cx="1.5" cy="401.5" r="1.5" fill="#fff" fill-opacity=".38"/><circle cx="1.5" cy="601.5" r="1.5" fill="#fff" fill-opacity=".38"/><circle cx="1.5" cy="441.5" r="1.5" fill="#fff" fill-opacity=".38"/><circle cx="1.5" cy="641.5" r="1.5" fill="#fff" fill-opacity=".38"/><circle cx="1.5" cy="481.5" r="1.5" fill="#fff" fill-opacity=".38"/><circle cx="1.5" cy="721.5" r="1.5" fill="#fff" fill-opacity=".38"/><circle cx="1.5" cy="761.5" r="1.5" fill="#fff" fill-opacity=".38"/><circle cx="1.5" cy="801.5" r="1.5" fill="#fff" fill-opacity=".38"/><circle cx="41.5" cy="521.5" r="1.5" fill="#fff" fill-opacity=".38"/><circle cx="41.5" cy="361.5" r="1.5" fill="#fff" fill-opacity=".38"/><circle cx="41.5" cy="561.5" r="1.5" fill="#fff" fill-opacity=".38"/><circle cx="41.5" cy="401.5" r="1.5" fill="#fff" fill-opacity=".38"/><circle cx="41.5" cy="441.5" r="1.5" fill="#fff" fill-opacity=".38"/><circle cx="41.5" cy="481.5" r="1.5" fill="#fff" fill-opacity=".38"/><circle cx="41.5" cy="681.5" r="1.5" fill="#fff" fill-opacity=".38"/><circle cx="41.5" cy="721.5" r="1.5" fill="#fff" fill-opacity=".38"/><circle cx="41.5" cy="761.5" r="1.5" fill="#fff" fill-opacity=".38"/><circle cx="81.5" cy="321.5" r="1.5" fill="#fff" fill-opacity=".38"/><circle cx="81.5" cy="521.5" r="1.5" fill="#fff" fill-opacity=".38"/><circle cx="81.5" cy="441.5" r="1.5" fill="#fff" fill-opacity=".38"/><circle cx="81.5" cy="641.5" r="1.5" fill="#fff" fill-opacity=".38"/><circle cx="81.5" cy="481.5" r="1.5" fill="#fff" fill-opacity=".38"/><circle cx="81.5" cy="681.5" r="1.5" fill="#fff" fill-opacity=".38"/><circle cx="81.5" cy="721.5" r="1.5" fill="#fff" fill-opacity=".38"/><circle cx="81.5" cy="801.5" r="1.5" fill="#fff" fill-opacity=".38"/><circle cx="81.5" cy="841.5" r="1.5" fill="#fff" fill-opacity=".38"/><circle cx="121.5" cy="321.5" r="1.5" fill="#fff" fill-opacity=".38"/><circle cx="121.5" cy="521.5" r="1.5" fill="#fff" fill-opacity=".38"/><circle cx="121.5" cy="361.5" r="1.5" fill="#fff" fill-opacity=".38"/><circle cx="121.5" cy="561.5" r="1.5" fill="#fff" fill-opacity=".38"/><circle cx="121.5" cy="401.5" r="1.5" fill="#fff" fill-opacity=".38"/><circle cx="121.5" cy="601.5" r="1.5" fill="#fff" fill-opacity=".38"/><circle cx="121.5" cy="441.5" r="1.5" fill="#fff" fill-opacity=".38"/><circle cx="120" cy="641" r="3" fill="#fff"/><circle cx="441" cy="521" r="3" fill="#fff"/><circle cx="41" cy="361" r="3" fill="#fff"/><circle cx="121.5" cy="721.5" r="1.5" fill="#fff" fill-opacity=".38"/><circle cx="121.5" cy="761.5" r="1.5" fill="#fff" fill-opacity=".38"/><circle cx="161.5" cy="321.5" r="1.5" fill="#fff" fill-opacity=".38"/><circle cx="161.5" cy="521.5" r="1.5" fill="#fff" fill-opacity=".38"/><circle cx="161.5" cy="361.5" r="1.5" fill="#fff" fill-opacity=".38"/><circle cx="161.5" cy="401.5" r="1.5" fill="#fff" fill-opacity=".38"/><circle cx="161.5" cy="601.5" r="1.5" fill="#fff" fill-opacity=".38"/><circle cx="161.5" cy="441.5" r="1.5" fill="#fff" fill-opacity=".38"/><circle cx="161.5" cy="641.5" r="1.5" fill="#fff" fill-opacity=".38"/><circle cx="161.5" cy="481.5" r="1.5" fill="#fff" fill-opacity=".38"/><circle cx="161.5" cy="681.5" r="1.5" fill="#fff" fill-opacity=".38"/><circle cx="161.5" cy="721.5" r="1.5" fill="#fff" fill-opacity=".38"/><circle cx="161.5" cy="801.5" r="1.5" fill="#fff" fill-opacity=".38"/><circle cx="161.5" cy="841.5" r="1.5" fill="#fff" fill-opacity=".38"/><circle cx="201.5" cy="521.5" r="1.5" fill="#fff" fill-opacity=".38"/><circle cx="201.5" cy="361.5" r="1.5" fill="#fff" fill-opacity=".38"/><circle cx="201.5" cy="561.5" r="1.5" fill="#fff" fill-opacity=".38"/><circle cx="201.5" cy="401.5" r="1.5" fill="#fff" fill-opacity=".38"/><circle cx="201.5" cy="601.5" r="1.5" fill="#fff" fill-opacity=".38"/><circle cx="201.5" cy="641.5" r="1.5" fill="#fff" fill-opacity=".38"/><circle cx="201.5" cy="481.5" r="1.5" fill="#fff" fill-opacity=".38"/><circle cx="201.5" cy="681.5" r="1.5" fill="#fff" fill-opacity=".38"/><circle cx="201.5" cy="721.5" r="1.5" fill="#fff" fill-opacity=".38"/><circle cx="201.5" cy="841.5" r="1.5" fill="#fff" fill-opacity=".38"/><circle cx="241.5" cy="321.5" r="1.5" fill="#fff" fill-opacity=".38"/><circle cx="241.5" cy="521.5" r="1.5" fill="#fff" fill-opacity=".38"/><circle cx="241.5" cy="361.5" r="1.5" fill="#fff" fill-opacity=".38"/><circle cx="241.5" cy="561.5" r="1.5" fill="#fff" fill-opacity=".38"/><circle cx="241.5" cy="401.5" r="1.5" fill="#fff" fill-opacity=".38"/><circle cx="241.5" cy="601.5" r="1.5" fill="#fff" fill-opacity=".38"/><circle cx="241.5" cy="441.5" r="1.5" fill="#fff" fill-opacity=".38"/><circle cx="241.5" cy="641.5" r="1.5" fill="#fff" fill-opacity=".38"/><circle cx="241.5" cy="481.5" r="1.5" fill="#fff" fill-opacity=".38"/><circle cx="241.5" cy="721.5" r="1.5" fill="#fff" fill-opacity=".38"/><circle cx="241.5" cy="761.5" r="1.5" fill="#fff" fill-opacity=".38"/><circle cx="241.5" cy="801.5" r="1.5" fill="#fff" fill-opacity=".38"/><circle cx="281.5" cy="321.5" r="1.5" fill="#fff" fill-opacity=".38"/><circle cx="281.5" cy="561.5" r="1.5" fill="#fff" fill-opacity=".38"/><circle cx="281.5" cy="601.5" r="1.5" fill="#fff" fill-opacity=".38"/><circle cx="281.5" cy="441.5" r="1.5" fill="#fff" fill-opacity=".38"/><circle cx="281.5" cy="641.5" r="1.5" fill="#fff" fill-opacity=".38"/><circle cx="281.5" cy="681.5" r="1.5" fill="#fff" fill-opacity=".38"/><circle cx="281.5" cy="721.5" r="1.5" fill="#fff" fill-opacity=".38"/><circle cx="281.5" cy="761.5" r="1.5" fill="#fff" fill-opacity=".38"/><circle cx="281.5" cy="801.5" r="1.5" fill="#fff" fill-opacity=".38"/><circle cx="281.5" cy="841.5" r="1.5" fill="#fff" fill-opacity=".38"/><circle cx="321.5" cy="321.5" r="1.5" fill="#fff" fill-opacity=".38"/><circle cx="321.5" cy="521.5" r="1.5" fill="#fff" fill-opacity=".38"/><circle cx="321" cy="359" r="3" fill="#fff"/><circle cx="321.5" cy="561.5" r="1.5" fill="#fff" fill-opacity=".38"/><circle cx="321.5" cy="401.5" r="1.5" fill="#fff" fill-opacity=".38"/><circle cx="321.5" cy="601.5" r="1.5" fill="#fff" fill-opacity=".38"/><circle cx="321.5" cy="441.5" r="1.5" fill="#fff" fill-opacity=".38"/><circle cx="321.5" cy="641.5" r="1.5" fill="#fff" fill-opacity=".38"/><circle cx="321.5" cy="481.5" r="1.5" fill="#fff" fill-opacity=".38"/><circle cx="321.5" cy="681.5" r="1.5" fill="#fff" fill-opacity=".38"/><circle cx="321.5" cy="721.5" r="1.5" fill="#fff" fill-opacity=".38"/><circle cx="321.5" cy="801.5" r="1.5" fill="#fff" fill-opacity=".38"/><circle cx="321.5" cy="841.5" r="1.5" fill="#fff" fill-opacity=".38"/><circle cx="361.5" cy="321.5" r="1.5" fill="#fff" fill-opacity=".38"/><circle cx="361.5" cy="521.5" r="1.5" fill="#fff" fill-opacity=".38"/><circle cx="361.5" cy="561.5" r="1.5" fill="#fff" fill-opacity=".38"/><circle cx="361.5" cy="401.5" r="1.5" fill="#fff" fill-opacity=".38"/><circle cx="361.5" cy="441.5" r="1.5" fill="#fff" fill-opacity=".38"/><circle cx="360" cy="721" r="3" fill="#fff"/><circle cx="361.5" cy="761.5" r="1.5" fill="#fff" fill-opacity=".38"/><circle cx="361.5" cy="841.5" r="1.5" fill="#fff" fill-opacity=".38"/><circle cx="401.5" cy="321.5" r="1.5" fill="#fff" fill-opacity=".38"/><circle cx="401.5" cy="521.5" r="1.5" fill="#fff" fill-opacity=".38"/><circle cx="401.5" cy="361.5" r="1.5" fill="#fff" fill-opacity=".38"/><circle cx="401.5" cy="561.5" r="1.5" fill="#fff" fill-opacity=".38"/><circle cx="401.5" cy="401.5" r="1.5" fill="#fff" fill-opacity=".38"/><circle cx="401.5" cy="641.5" r="1.5" fill="#fff" fill-opacity=".38"/><circle cx="401.5" cy="481.5" r="1.5" fill="#fff" fill-opacity=".38"/><circle cx="401.5" cy="681.5" r="1.5" fill="#fff" fill-opacity=".38"/><circle cx="401.5" cy="761.5" r="1.5" fill="#fff" fill-opacity=".38"/><circle cx="441.5" cy="321.5" r="1.5" fill="#fff" fill-opacity=".38"/><circle cx="441.5" cy="521.5" r="1.5" fill="#fff"/><circle cx="441.5" cy="561.5" r="1.5" fill="#fff" fill-opacity=".38"/><circle cx="441.5" cy="401.5" r="1.5" fill="#fff" fill-opacity=".38"/><circle cx="441.5" cy="601.5" r="1.5" fill="#fff" fill-opacity=".38"/><circle cx="441.5" cy="441.5" r="1.5" fill="#fff" fill-opacity=".38"/><circle cx="441.5" cy="641.5" r="1.5" fill="#fff" fill-opacity=".38"/><circle cx="441.5" cy="681.5" r="1.5" fill="#fff" fill-opacity=".38"/><circle cx="441.5" cy="721.5" r="1.5" fill="#fff" fill-opacity=".38"/><circle cx="441.5" cy="761.5" r="1.5" fill="#fff" fill-opacity=".38"/><circle cx="441.5" cy="801.5" r="1.5" fill="#fff" fill-opacity=".38"/><circle cx="481.5" cy="321.5" r="1.5" fill="#fff" fill-opacity=".38"/><circle cx="481.5" cy="561.5" r="1.5" fill="#fff" fill-opacity=".38"/><circle cx="481.5" cy="401.5" r="1.5" fill="#fff" fill-opacity=".38"/><circle cx="481.5" cy="601.5" r="1.5" fill="#fff" fill-opacity=".38"/><circle cx="481.5" cy="441.5" r="1.5" fill="#fff" fill-opacity=".38"/><circle cx="481.5" cy="641.5" r="1.5" fill="#fff" fill-opacity=".38"/><circle cx="481.5" cy="721.5" r="1.5" fill="#fff" fill-opacity=".38"/><circle cx="481.5" cy="761.5" r="1.5" fill="#fff" fill-opacity=".38"/><circle cx="481.5" cy="801.5" r="1.5" fill="#fff" fill-opacity=".38"/><circle cx="521.5" cy="521.5" r="1.5" fill="#fff" fill-opacity=".38"/><circle cx="521.5" cy="361.5" r="1.5" fill="#fff" fill-opacity=".38"/><circle cx="521.5" cy="561.5" r="1.5" fill="#fff" fill-opacity=".38"/><circle cx="521.5" cy="681.5" r="1.5" fill="#fff" fill-opacity=".38"/><circle cx="521.5" cy="761.5" r="1.5" fill="#fff" fill-opacity=".38"/><circle cx="521.5" cy="801.5" r="1.5" fill="#fff" fill-opacity=".38"/><circle cx="521.5" cy="841.5" r="1.5" fill="#fff" fill-opacity=".38"/><circle cx="561.5" cy="801.5" r="1.5" fill="#fff" fill-opacity=".38"/><circle cx="521.5" cy="601.5" r="1.5" fill="#fff" fill-opacity=".38"/><circle cx="561.5" cy="601.5" r="1.5" fill="#fff" fill-opacity=".38"/></svg>