<svg width="81" height="81" fill="none" xmlns="http://www.w3.org/2000/svg"><g clip-path="url(#clip0)"><path d="M16.96 80.852a3.588 3.588 0 01-2.423-4.46l3.227-10.903 6.881 2.037-3.226 10.903a3.588 3.588 0 01-4.46 2.423zm39.777 0a3.588 3.588 0 002.422-4.46L55.932 65.49l-6.881 2.037 3.227 10.903a3.588 3.588 0 004.459 2.423z" fill="#FFE7CF"/><path d="M24.646 67.526L21.42 78.43a3.587 3.587 0 01-5.177 2.12 3.57 3.57 0 001.702-2.12l3.657-11.805 3.045.901zm32.09 13.325c-.96.284-1.944.15-2.756-.3a3.583 3.583 0 001.704-4.158l-2.948-9.958 3.196-.945 3.227 10.903a3.587 3.587 0 01-2.423 4.458z" fill="#F4D5BA"/><path d="M36.85 76.085c18.994 0 34.392-15.398 34.392-34.392C71.242 22.698 55.844 7.3 36.849 7.3 17.855 7.3 2.457 22.698 2.457 41.693c0 18.994 15.398 34.392 34.392 34.392z" fill="#F15B29"/><path d="M71.24 41.693c0 18.993-15.396 34.392-34.392 34.392a34.24 34.24 0 01-21.07-7.209 34.23 34.23 0 0017.54 4.804c18.994 0 34.392-15.399 34.392-34.393 0-11.059-5.22-20.898-13.33-27.19 10.095 5.994 16.86 17.005 16.86 29.596z" fill="#E84D1A"/><path d="M36.849 69.014c15.09 0 27.322-12.232 27.322-27.321 0-15.09-12.233-27.322-27.322-27.322-15.09 0-27.322 12.232-27.322 27.322S21.76 69.015 36.85 69.015z" fill="#F9F8F9"/><path d="M64.17 41.692c0 15.09-12.232 27.322-27.322 27.322-3.941 0-7.686-.835-11.07-2.335a27.345 27.345 0 007.848 1.143c15.088 0 27.322-12.232 27.322-27.322 0-11.148-6.678-20.738-16.252-24.986C55.96 18.887 64.17 29.332 64.17 41.692z" fill="#EFEDEF"/><path d="M36.849 62.163c11.305 0 20.47-9.165 20.47-20.47 0-11.306-9.165-20.47-20.47-20.47s-20.47 9.164-20.47 20.47c0 11.305 9.165 20.47 20.47 20.47z" fill="#F15B29"/><path d="M57.318 41.692c0 11.306-9.164 20.47-20.47 20.47-3.806 0-7.371-1.04-10.424-2.85a20.446 20.446 0 006.971 1.218c11.306 0 20.47-9.164 20.47-20.47 0-7.496-4.03-14.052-10.042-17.619 7.872 2.852 13.495 10.396 13.495 19.251z" fill="#E84D1A"/><path d="M36.85 54.876c7.28 0 13.183-5.902 13.183-13.183S44.13 28.509 36.849 28.509c-7.28 0-13.183 5.903-13.183 13.184 0 7.28 5.902 13.183 13.183 13.183z" fill="#F9F8F9"/><path d="M50.031 41.692c0 7.282-5.901 13.183-13.183 13.183a13.13 13.13 0 01-7.389-2.262c1.28.415 2.646.639 4.065.639 7.28 0 13.183-5.902 13.183-13.184 0-4.544-2.3-8.552-5.797-10.92 5.294 1.71 9.121 6.682 9.121 12.544z" fill="#EFEDEF"/><path d="M36.85 47.64a5.947 5.947 0 100-11.895 5.947 5.947 0 000 11.895z" fill="#F15B29"/><path d="M42.796 41.693a5.946 5.946 0 01-9.554 4.729 5.947 5.947 0 004.164-10.65 5.948 5.948 0 015.39 5.92z" fill="#E84D1A"/><path d="M36.849 42.91a1.218 1.218 0 01-.861-2.08L68.424 8.395a1.218 1.218 0 011.722 1.722L37.71 42.554c-.238.237-.55.356-.861.356z" fill="#8B8089"/><path d="M70.465 8.076l-.95-7.507A.65.65 0 0068.412.19L56.915 11.688a.65.65 0 00-.18.58l1.512 8.025L70.465 8.076z" fill="#E1E6E9"/><path d="M70.467 8.076L58.248 20.293l-.72-3.834L69.955 4.03l.511 4.045z" fill="#D5D6DB"/><path d="M70.465 8.076l7.508.95a.65.65 0 01.377 1.103L66.854 21.626a.65.65 0 01-.58.179l-8.026-1.512L70.465 8.076z" fill="#E1E6E9"/><path d="M78.351 10.128L66.855 21.626a.654.654 0 01-.58.179L62.7 21.13 74.773 9.056a.64.64 0 00.19-.412l3.01.382c.536.068.76.72.378 1.102z" fill="#D5D6DB"/></g><defs><clipPath id="clip0"><path fill="#fff" d="M0 0h81v81H0z"/></clipPath></defs></svg>