<svg width="19" height="18" fill="none" xmlns="http://www.w3.org/2000/svg"><g clip-path="url(#clip0)"><path d="M17.048 5.335A7.564 7.564 0 0019 3.419 8.49 8.49 0 0116.756 4c.807-.457 1.424-1.174 1.714-2.039a8.061 8.061 0 01-2.47.893 4.006 4.006 0 00-2.846-1.167c-2.156 0-3.892 1.658-3.892 3.69 0 .293.026.574.09.842-3.238-.15-6.104-1.62-8.03-3.86A3.573 3.573 0 00.79 4.224c0 1.278.695 2.41 1.73 3.067a4.016 4.016 0 01-1.76-.454v.04c0 1.794 1.35 3.283 3.12 3.627a4.072 4.072 0 01-1.02.121c-.25 0-.502-.013-.738-.063.505 1.461 1.938 2.536 3.64 2.571a8.11 8.11 0 01-4.83 1.574c-.32 0-.626-.014-.932-.05a11.417 11.417 0 005.976 1.655c6.874 0 11.354-5.433 11.072-10.977z" fill="#fff"/></g><defs><clipPath id="clip0"><path fill="#fff" d="M0 0h19v18H0z"/></clipPath></defs></svg>