<svg width="62" height="59" fill="none" xmlns="http://www.w3.org/2000/svg"><path d="M28.763 24.64c-2.551 4.344-4.995 8.55-7.49 12.725-.64 1.072-.958 1.945-.446 3.307 1.413 3.764-.58 7.427-4.327 8.42-3.533.939-6.976-1.414-7.677-5.246-.62-3.392 1.978-6.717 5.67-7.247.309-.045.624-.05 1.144-.09 1.81-3.072 3.662-6.22 5.616-9.538-3.532-3.558-5.634-7.717-5.17-12.87.33-3.643 1.744-6.79 4.328-9.37 4.95-4.942 12.502-5.742 18.331-1.95 5.598 3.643 8.162 10.74 5.976 16.813-1.648-.453-3.307-.91-5.13-1.41.685-3.377.178-6.41-2.07-9.007-1.486-1.715-3.392-2.614-5.559-2.945-4.345-.665-8.61 2.163-9.876 6.482-1.437 4.903.738 8.908 6.68 11.926z" fill="#C73A63"/><path d="M36.048 19.503l5.43 9.702c9.14-2.865 16.032 2.26 18.505 7.748 2.986 6.63.945 14.48-4.92 18.57-6.02 4.199-13.634 3.481-18.967-1.912l4.185-3.547c5.268 3.456 9.875 3.294 13.296-.8 2.917-3.491 2.853-8.697-.148-12.116-3.464-3.944-8.104-4.065-13.712-.278-2.327-4.181-4.694-8.329-6.947-12.54-.76-1.42-1.598-2.243-3.31-2.543-2.86-.503-4.705-2.99-4.816-5.777-.109-2.756 1.494-5.247 3.999-6.217a6.188 6.188 0 017.063 1.952c1.364 1.746 1.797 3.711 1.08 5.865-.2.6-.459 1.181-.738 1.893z" fill="#4B4B4B"/><path d="M40.343 45.757H29.339c-1.055 4.394-3.333 7.942-7.258 10.198-3.052 1.754-6.34 2.348-9.841 1.776C5.795 56.678.525 50.8.06 44.182c-.524-7.497 4.563-14.16 11.343-15.658.468 1.723.941 3.461 1.41 5.18-6.222 3.214-8.375 7.265-6.634 12.331 1.533 4.458 5.887 6.901 10.614 5.956 4.827-.965 7.261-5.029 6.964-11.551 4.577 0 9.157-.048 13.734.023 1.787.029 3.167-.159 4.514-1.755 2.216-2.626 6.296-2.39 8.684.091 2.44 2.535 2.322 6.614-.26 9.042a6.168 6.168 0 01-8.756-.307c-.48-.52-.857-1.138-1.33-1.777z" fill="#4A4A4A"/></svg>