<svg width="66" height="66" fill="none" xmlns="http://www.w3.org/2000/svg"><path d="M4.879 32.616c0 11.053 6.48 20.604 15.878 25.13L7.318 21.254a27.612 27.612 0 00-2.44 11.363zm47.193-1.41c0-3.45-1.25-5.84-2.323-7.7-1.427-2.3-2.766-4.248-2.766-6.548 0-2.567 1.964-4.956 4.73-4.956.125 0 .244.016.366.022a28.219 28.219 0 00-19.027-7.33A28.2 28.2 0 009.512 17.28c.662.02 1.286.033 1.814.033 2.946 0 7.509-.355 7.509-.355 1.519-.088 1.698 2.123.181 2.3 0 0-1.526.178-3.225.266l10.26 30.245 6.166-18.327-4.39-11.918c-1.518-.089-2.955-.266-2.955-.266-1.518-.089-1.34-2.389.178-2.3 0 0 4.652.355 7.42.355 2.947 0 7.509-.355 7.509-.355 1.52-.088 1.699 2.123.181 2.3 0 0-1.529.178-3.224.266L47.118 49.54l2.807-9.307c1.22-3.862 2.147-6.636 2.147-9.027z" fill="#00749A"/><path d="M33.546 35.058l-8.452 24.343a28.42 28.42 0 0017.315-.444 2.208 2.208 0 01-.2-.386l-8.663-23.513zM57.774 19.22c.121.89.189 1.845.189 2.871 0 2.834-.534 6.02-2.143 10.001l-8.605 24.66c8.377-4.841 14.01-13.835 14.01-24.136 0-4.854-1.25-9.42-3.451-13.396z" fill="#00749A"/><path d="M33.052.068C14.944.068.211 14.668.211 32.616c0 17.949 14.732 32.55 32.841 32.55 18.108 0 32.843-14.6 32.843-32.55C65.895 14.67 51.161.068 33.052.068zm0 63.604c-17.277 0-31.335-13.931-31.335-31.056 0-17.123 14.057-31.055 31.335-31.055s31.335 13.93 31.335 31.054c0 17.126-14.057 31.057-31.335 31.057z" fill="#00749A"/></svg>