<svg width="77" height="35" fill="none" xmlns="http://www.w3.org/2000/svg"><path d="M0 27.549l7.971-12.322H.945a7.163 7.163 0 01-.089-1.173c0-.411.03-.793.089-1.145h11.367l.148.382-8.03 12.351h7.528c.059.391.088.792.088 1.203 0 .392-.03.763-.088 1.115H.148L0 27.548zm23-9.506c0-1.154-.296-1.956-.886-2.406-.59-.45-1.446-.674-2.568-.674-.689 0-1.334.054-1.934.161-.6.107-1.186.25-1.757.425-.374-.646-.561-1.417-.561-2.318a13.704 13.704 0 012.214-.498 16.211 16.211 0 012.333-.177c1.968 0 3.464.445 4.488 1.335 1.023.89 1.535 2.313 1.535 4.269v9.417c-.689.156-1.526.318-2.51.484-.985.166-1.988.25-3.011.25-.965 0-1.835-.088-2.613-.265-.777-.177-1.437-.46-1.978-.851a3.947 3.947 0 01-1.254-1.496c-.295-.606-.443-1.34-.443-2.2 0-.841.171-1.579.516-2.215a4.64 4.64 0 011.402-1.584c.59-.42 1.27-.733 2.037-.938a9.328 9.328 0 012.421-.308c.63 0 1.147.015 1.55.044.404.03.743.063 1.02.103v-.558H23zm0 2.845c-.296-.039-.67-.078-1.122-.117a13.806 13.806 0 00-1.152-.059c-1.22 0-2.15.225-2.79.675-.64.45-.96 1.135-.96 2.053 0 .588.109 1.047.326 1.38.216.332.487.587.812.763.325.175.684.284 1.077.322.394.04.768.059 1.122.059.453 0 .92-.025 1.402-.074A8.39 8.39 0 0023 25.67v-4.782zm6.05-7.98c.197-.039.4-.068.605-.088a6.796 6.796 0 011.256 0c.216.02.422.05.62.088.02.04.044.162.074.367s.058.425.088.66c.03.235.059.46.089.674.03.216.044.353.044.411a5.97 5.97 0 01.708-.91c.276-.292.606-.557.99-.791a5.21 5.21 0 011.298-.558 5.881 5.881 0 011.609-.205c.885 0 1.708.147 2.465.44a4.928 4.928 0 011.949 1.364c.54.616.964 1.399 1.27 2.347.305.949.457 2.069.457 3.359 0 2.582-.704 4.601-2.11 6.058-1.408 1.457-3.4 2.186-5.98 2.186-.432 0-.875-.03-1.328-.088a7.99 7.99 0 01-1.181-.235v6.895a9.972 9.972 0 01-1.476.117 9.68 9.68 0 01-.723-.03 7.225 7.225 0 01-.723-.087V12.908zm2.924 12.587a5.81 5.81 0 001.151.293c.394.058.905.088 1.535.088.709 0 1.358-.113 1.949-.337a3.878 3.878 0 001.52-1.042c.424-.47.758-1.06 1.004-1.776.246-.714.369-1.559.369-2.538 0-1.564-.291-2.806-.871-3.725-.58-.919-1.53-1.38-2.849-1.38-.492 0-.964.088-1.417.264-.453.176-.856.44-1.21.792-.355.352-.64.797-.856 1.335-.217.538-.325 1.179-.325 1.922v6.104zm14.231-10.298h-1.92a3.69 3.69 0 01-.088-.542 6.328 6.328 0 010-1.203 3.67 3.67 0 01.088-.543h4.783V27.96a6.99 6.99 0 01-.724.088 9.7 9.7 0 01-.723.03 9.41 9.41 0 01-.694-.03 7.021 7.021 0 01-.723-.088V15.197zm9.152 5.956c.039 1.643.468 2.846 1.284 3.608.816.763 2.022 1.145 3.617 1.145 1.397 0 2.725-.246 3.986-.734.157.293.286.65.383 1.07.099.421.158.837.178 1.247a9.89 9.89 0 01-2.14.616c-.779.137-1.64.206-2.584.206-1.378 0-2.56-.191-3.543-.573-.984-.381-1.796-.919-2.436-1.613a6.381 6.381 0 01-1.402-2.464c-.294-.948-.443-1.99-.443-3.124 0-1.115.142-2.157.428-3.124.285-.968.724-1.81 1.314-2.523a6.344 6.344 0 012.23-1.702c.895-.42 1.952-.631 3.173-.631 1.044 0 1.959.176 2.746.528a5.572 5.572 0 011.978 1.453c.532.616.935 1.35 1.21 2.2a8.93 8.93 0 01.415 2.772c0 .274-.01.563-.03.865-.02.305-.04.562-.059.778H55.357zm7.499-2.171c0-.548-.074-1.07-.221-1.57a3.99 3.99 0 00-.65-1.306 3.165 3.165 0 00-1.093-.895c-.442-.225-.97-.338-1.579-.338-1.2 0-2.121.363-2.76 1.086-.64.724-1.029 1.73-1.166 3.022h7.469zm6.114-6.073c.216-.04.423-.069.62-.088.196-.02.403-.03.62-.03.216 0 .432.01.65.03.216.019.413.049.59.088.06.293.119.68.177 1.158.059.48.089.886.089 1.218a6.087 6.087 0 011.639-1.732c.678-.488 1.55-.733 2.612-.733.157 0 .32.005.487.015.167.01.31.024.429.044.04.177.069.362.089.558a6.214 6.214 0 01-.015 1.35c-.03.254-.065.498-.104.733a2.039 2.039 0 00-.487-.059h-.399c-.531 0-1.038.074-1.52.22a3.199 3.199 0 00-1.3.778c-.384.371-.689.88-.915 1.525-.227.646-.34 1.477-.34 2.494v7.481a7.016 7.016 0 01-.724.088 9.7 9.7 0 01-.723.03 9.99 9.99 0 01-1.476-.118V12.91zM51.855 4.058h-2.86l2.022-2.01A4.896 4.896 0 0049.86.9l-2.023 2.01V.068A4.966 4.966 0 0047.024 0h-.005c-.278 0-.55.024-.814.068V2.91L44.182.9a4.951 4.951 0 00-.626.526h-.001c-.193.192-.37.4-.53.622l2.024 2.01h-2.86s-.069.534-.069.81v.003c0 .276.024.547.068.81h2.861l-2.023 2.01c.318.444.708.832 1.155 1.148l2.023-2.01v2.843c.264.044.536.067.813.067h.007c.277 0 .55-.023.813-.067V6.83l2.023 2.01c.223-.158.432-.334.626-.525v-.001c.194-.192.37-.4.53-.622l-2.023-2.01h2.861c.045-.263.068-.533.068-.809v-.006c0-.276-.023-.545-.067-.809zm-3.608.814c0 .361-.067.708-.188 1.028a2.96 2.96 0 01-1.035.188h-.005c-.363 0-.712-.067-1.035-.187a2.887 2.887 0 01-.187-1.028v-.005c0-.362.067-.709.188-1.029.321-.12.67-.187 1.035-.187h.004c.364 0 .713.066 1.035.187a2.9 2.9 0 01.188 1.029v.004z" fill="#FF4A00"/></svg>